<svg width="179" height="156" viewBox="0 0 179 156" fill="none" xmlns="http://www.w3.org/2000/svg">
<g filter="url(#filter0_d_9_3)">
<path d="M30.8544 104.9V113.649C30.8544 113.788 30.8284 113.883 30.7764 113.935C30.7331 113.978 30.6421 114 30.5034 114H29.8144V105.251C29.8144 105.112 29.8361 105.021 29.8794 104.978C29.9314 104.926 30.0268 104.9 30.1654 104.9H30.8544ZM36.1796 110.464L36.8946 112.401H36.9726L36.7646 110.425V105.251C36.7646 105.112 36.7863 105.021 36.8296 104.978C36.8816 104.926 36.977 104.9 37.1156 104.9H37.8046V113.649C37.8046 113.788 37.7786 113.883 37.7266 113.935C37.6833 113.978 37.5923 114 37.4536 114H36.7776L34.3726 108.54L33.6446 106.447H33.5666L33.7616 108.267V113.649C33.7616 113.788 33.7356 113.883 33.6836 113.935C33.6403 113.978 33.5493 114 33.4106 114H32.7216V105.251C32.7216 105.112 32.7433 105.021 32.7866 104.978C32.8386 104.926 32.934 104.9 33.0726 104.9H33.7746L36.1796 110.464ZM43.1107 112.765C43.1107 113.216 43.0153 113.536 42.8247 113.727C42.6427 113.909 42.3263 114 41.8757 114H40.2897C40.0383 114 39.8563 113.939 39.7437 113.818C39.6397 113.688 39.5617 113.497 39.5097 113.246H41.4597C41.7283 113.246 41.8973 113.19 41.9667 113.077C42.036 112.964 42.0707 112.774 42.0707 112.505V110.399C42.0707 110.13 42.0317 109.94 41.9537 109.827C41.8843 109.714 41.7023 109.658 41.4077 109.658H40.7447C40.294 109.658 39.9733 109.567 39.7827 109.385C39.6007 109.194 39.5097 108.874 39.5097 108.423V106.135C39.5097 105.684 39.6007 105.368 39.7827 105.186C39.9733 104.995 40.294 104.9 40.7447 104.9H42.2917C42.543 104.9 42.7207 104.965 42.8247 105.095C42.9373 105.216 43.0197 105.403 43.0717 105.654H41.1607C40.892 105.654 40.723 105.71 40.6537 105.823C40.5843 105.936 40.5497 106.126 40.5497 106.395V108.163C40.5497 108.432 40.5843 108.622 40.6537 108.735C40.723 108.848 40.892 108.904 41.1607 108.904H41.8757C42.3263 108.904 42.6427 108.999 42.8247 109.19C43.0153 109.372 43.1107 109.688 43.1107 110.139V112.765ZM49.071 104.9V105.303C49.071 105.442 49.045 105.537 48.993 105.589C48.9496 105.632 48.8586 105.654 48.72 105.654H47.16V113.649C47.16 113.788 47.134 113.883 47.082 113.935C47.0386 113.978 46.9476 114 46.809 114H46.12V105.654H44.235V105.251C44.235 105.112 44.2566 105.021 44.3 104.978C44.352 104.926 44.4473 104.9 44.586 104.9H49.071ZM52.9433 108.904C53.212 108.904 53.381 108.848 53.4503 108.735C53.5197 108.622 53.5543 108.432 53.5543 108.163V106.395C53.5543 106.126 53.5197 105.936 53.4503 105.823C53.381 105.71 53.212 105.654 52.9433 105.654H51.3573V113.649C51.3573 113.788 51.3313 113.883 51.2793 113.935C51.236 113.978 51.145 114 51.0063 114H50.3173V105.251C50.3173 105.112 50.339 105.021 50.3823 104.978C50.4343 104.926 50.5297 104.9 50.6683 104.9H53.3593C53.81 104.9 54.1263 104.995 54.3083 105.186C54.499 105.368 54.5943 105.684 54.5943 106.135V108.423C54.5943 108.83 54.5207 109.129 54.3733 109.32C54.226 109.502 53.9747 109.61 53.6193 109.645L54.9323 114H54.2693C54.1307 114 54.0267 113.978 53.9573 113.935C53.8967 113.883 53.8447 113.788 53.8013 113.649L52.5923 109.658H52.2023C52.0637 109.658 51.9727 109.636 51.9293 109.593C51.8947 109.541 51.8773 109.446 51.8773 109.307V108.904H52.9433ZM60.9224 104.9V112.765C60.9224 113.216 60.8271 113.536 60.6364 113.727C60.4544 113.909 60.1381 114 59.6874 114H57.6204C57.1697 114 56.8491 113.909 56.6584 113.727C56.4764 113.536 56.3854 113.216 56.3854 112.765V105.251C56.3854 105.112 56.4071 105.021 56.4504 104.978C56.5024 104.926 56.5977 104.9 56.7364 104.9H57.4254V112.505C57.4254 112.774 57.4601 112.964 57.5294 113.077C57.5987 113.19 57.7677 113.246 58.0364 113.246H59.2714C59.5401 113.246 59.7091 113.19 59.7784 113.077C59.8477 112.964 59.8824 112.774 59.8824 112.505V105.251C59.8824 105.112 59.9041 105.021 59.9474 104.978C59.9994 104.926 60.0947 104.9 60.2334 104.9H60.9224ZM66.4238 110.841C66.3632 110.971 66.3025 111.062 66.2418 111.114C66.1898 111.166 66.1075 111.192 65.9948 111.192H65.5788L63.7718 106.434H63.6938L63.7978 108.007L63.8628 113.649C63.8628 113.788 63.8368 113.883 63.7848 113.935C63.7415 113.978 63.6505 114 63.5118 114H62.7968V105.251C62.7968 105.112 62.8185 105.021 62.8618 104.978C62.9138 104.926 63.0092 104.9 63.1478 104.9H64.0188L65.6828 109.138L65.9688 110.217H66.0468L66.3458 109.138L67.9838 105.251C68.0358 105.13 68.0965 105.043 68.1658 104.991C68.2352 104.93 68.3348 104.9 68.4648 104.9H69.2448V113.649C69.2448 113.788 69.2188 113.883 69.1668 113.935C69.1235 113.978 69.0325 114 68.8938 114H68.2048V108.007L68.3218 106.434H68.2438L66.4238 110.841ZM72.1523 109.658V113.246H74.6353V113.649C74.6353 113.788 74.6093 113.883 74.5573 113.935C74.5139 113.978 74.4229 114 74.2843 114H71.1123V105.251C71.1123 105.112 71.1339 105.021 71.1773 104.978C71.2293 104.926 71.3246 104.9 71.4633 104.9H74.6353V105.303C74.6353 105.442 74.6136 105.537 74.5703 105.589C74.5356 105.632 74.4489 105.654 74.3103 105.654H72.1523V108.904H74.2453V109.307C74.2453 109.446 74.2236 109.541 74.1803 109.593C74.1456 109.636 74.0589 109.658 73.9203 109.658H72.1523ZM79.623 110.464L80.338 112.401H80.416L80.208 110.425V105.251C80.208 105.112 80.2297 105.021 80.273 104.978C80.325 104.926 80.4203 104.9 80.559 104.9H81.248V113.649C81.248 113.788 81.222 113.883 81.17 113.935C81.1267 113.978 81.0357 114 80.897 114H80.221L77.816 108.54L77.088 106.447H77.01L77.205 108.267V113.649C77.205 113.788 77.179 113.883 77.127 113.935C77.0837 113.978 76.9927 114 76.854 114H76.165V105.251C76.165 105.112 76.1867 105.021 76.23 104.978C76.282 104.926 76.3773 104.9 76.516 104.9H77.218L79.623 110.464ZM87.36 104.9V105.303C87.36 105.442 87.334 105.537 87.282 105.589C87.2387 105.632 87.1477 105.654 87.009 105.654H85.449V113.649C85.449 113.788 85.423 113.883 85.371 113.935C85.3277 113.978 85.2367 114 85.098 114H84.409V105.654H82.524V105.251C82.524 105.112 82.5457 105.021 82.589 104.978C82.641 104.926 82.7364 104.9 82.875 104.9H87.36ZM89.6204 112.505C89.6204 112.774 89.6551 112.964 89.7244 113.077C89.7937 113.19 89.9627 113.246 90.2314 113.246H91.4014C91.6701 113.246 91.8391 113.19 91.9084 113.077C91.9777 112.964 92.0124 112.774 92.0124 112.505V106.395C92.0124 106.126 91.9777 105.936 91.9084 105.823C91.8391 105.71 91.6701 105.654 91.4014 105.654H90.2314C89.9627 105.654 89.7937 105.71 89.7244 105.823C89.6551 105.936 89.6204 106.126 89.6204 106.395V112.505ZM88.5804 106.135C88.5804 105.684 88.6714 105.368 88.8534 105.186C89.0441 104.995 89.3647 104.9 89.8154 104.9H91.8174C92.2681 104.9 92.5844 104.995 92.7664 105.186C92.9571 105.368 93.0524 105.684 93.0524 106.135V112.765C93.0524 113.216 92.9571 113.536 92.7664 113.727C92.5844 113.909 92.2681 114 91.8174 114H89.8154C89.3647 114 89.0441 113.909 88.8534 113.727C88.6714 113.536 88.5804 113.216 88.5804 112.765V106.135ZM98.3353 112.765C98.3353 113.216 98.24 113.536 98.0493 113.727C97.8673 113.909 97.551 114 97.1003 114H95.5143C95.263 114 95.081 113.939 94.9683 113.818C94.8643 113.688 94.7863 113.497 94.7343 113.246H96.6843C96.953 113.246 97.122 113.19 97.1913 113.077C97.2606 112.964 97.2953 112.774 97.2953 112.505V110.399C97.2953 110.13 97.2563 109.94 97.1783 109.827C97.109 109.714 96.927 109.658 96.6323 109.658H95.9693C95.5186 109.658 95.198 109.567 95.0073 109.385C94.8253 109.194 94.7343 108.874 94.7343 108.423V106.135C94.7343 105.684 94.8253 105.368 95.0073 105.186C95.198 104.995 95.5186 104.9 95.9693 104.9H97.5163C97.7676 104.9 97.9453 104.965 98.0493 105.095C98.162 105.216 98.2443 105.403 98.2963 105.654H96.3853C96.1166 105.654 95.9476 105.71 95.8783 105.823C95.809 105.936 95.7743 106.126 95.7743 106.395V108.163C95.7743 108.432 95.809 108.622 95.8783 108.735C95.9476 108.848 96.1166 108.904 96.3853 108.904H97.1003C97.551 108.904 97.8673 108.999 98.0493 109.19C98.24 109.372 98.3353 109.688 98.3353 110.139V112.765Z" fill="white"/>
</g>
<g filter="url(#filter1_d_9_3)">
<mask id="path-2-outside-1_9_3" maskUnits="userSpaceOnUse" x="66" y="27" width="66" height="70" fill="black">
<rect fill="white" x="66" y="27" width="66" height="70"/>
<path d="M94.7685 96V62.496L95.4405 67.2L68.2725 28.8H80.7525L101.489 58.56L99.0885 58.272L117.809 28.8H129.713L103.697 68.256L105.137 61.728V96H94.7685Z"/>
</mask>
<path d="M94.7685 96V62.496L95.4405 67.2L68.2725 28.8H80.7525L101.489 58.56L99.0885 58.272L117.809 28.8H129.713L103.697 68.256L105.137 61.728V96H94.7685Z" fill="#EAD111"/>
<path d="M94.7685 96H93.7685V97H94.7685V96ZM94.7685 62.496L95.7585 62.3546L93.7685 62.496H94.7685ZM95.4405 67.2L94.6242 67.7776L96.4305 67.0586L95.4405 67.2ZM68.2725 28.8V27.8H66.34L67.4562 29.3776L68.2725 28.8ZM80.7525 28.8L81.573 28.2283L81.2745 27.8H80.7525V28.8ZM101.489 58.56L101.369 59.5529L103.584 59.8187L102.309 57.9883L101.489 58.56ZM99.0885 58.272L98.2444 57.7358L97.3933 59.0757L98.9694 59.2649L99.0885 58.272ZM117.809 28.8V27.8H117.259L116.964 28.2638L117.809 28.8ZM129.713 28.8L130.547 29.3505L131.57 27.8H129.713V28.8ZM103.697 68.256L102.72 68.0406L104.531 68.8065L103.697 68.256ZM105.137 61.728H106.137L104.16 61.5126L105.137 61.728ZM105.137 96V97H106.137V96H105.137ZM94.7685 96H95.7685V62.496H94.7685H93.7685V96H94.7685ZM94.7685 62.496L93.7785 62.6374L94.4506 67.3414L95.4405 67.2L96.4305 67.0586L95.7585 62.3546L94.7685 62.496ZM95.4405 67.2L96.2569 66.6224L69.0888 28.2224L68.2725 28.8L67.4562 29.3776L94.6242 67.7776L95.4405 67.2ZM68.2725 28.8V29.8H80.7525V28.8V27.8H68.2725V28.8ZM80.7525 28.8L79.932 29.3717L100.668 59.1317L101.489 58.56L102.309 57.9883L81.573 28.2283L80.7525 28.8ZM101.489 58.56L101.608 57.5671L99.2076 57.2791L99.0885 58.272L98.9694 59.2649L101.369 59.5529L101.489 58.56ZM99.0885 58.272L99.9326 58.8082L118.653 29.3362L117.809 28.8L116.964 28.2638L98.2444 57.7358L99.0885 58.272ZM117.809 28.8V29.8H129.713V28.8V27.8H117.809V28.8ZM129.713 28.8L128.878 28.2495L102.862 67.7055L103.697 68.256L104.531 68.8065L130.547 29.3505L129.713 28.8ZM103.697 68.256L104.673 68.4714L106.113 61.9434L105.137 61.728L104.16 61.5126L102.72 68.0406L103.697 68.256ZM105.137 61.728H104.137V96H105.137H106.137V61.728H105.137ZM105.137 96V95H94.7685V96V97H105.137V96Z" fill="#160000" mask="url(#path-2-outside-1_9_3)"/>
</g>
<g filter="url(#filter2_d_9_3)">
<mask id="path-4-outside-2_9_3" maskUnits="userSpaceOnUse" x="102" y="63" width="55" height="70" fill="black">
<rect fill="white" x="102" y="63" width="55" height="70"/>
<path d="M155.264 132V64.8H127.232C122.944 64.8 119.328 65.44 116.384 66.72C113.44 68 111.232 69.92 109.76 72.48C108.224 74.976 107.456 78.048 107.456 81.696C107.456 85.344 108.48 88.448 110.528 91.008C112.512 93.568 115.296 95.328 118.88 96.288V94.368C115.872 95.008 113.248 96.16 111.008 97.824C108.768 99.424 107.04 101.44 105.824 103.872C104.544 106.304 103.904 109.088 103.904 112.224C103.904 115.424 104.416 118.272 105.44 120.768C106.4 123.2 107.872 125.248 109.856 126.912C111.776 128.576 114.112 129.856 116.864 130.752C119.616 131.584 122.752 132 126.272 132H155.264ZM144.896 122.016H126.848C122.944 122.016 119.904 121.152 117.728 119.424C115.552 117.696 114.464 115.232 114.464 112.032C114.464 110.048 115.008 108.352 116.096 106.944C117.12 105.536 118.592 104.48 120.512 103.776C122.432 103.008 124.704 102.624 127.328 102.624H144.896V122.016ZM144.896 92.64H127.808C125.888 92.64 124.192 92.256 122.72 91.488C121.184 90.72 120 89.664 119.168 88.32C118.272 86.976 117.824 85.44 117.824 83.712C117.824 80.832 118.784 78.624 120.704 77.088C122.624 75.552 125.376 74.784 128.96 74.784H144.896V92.64Z"/>
</mask>
<path d="M155.264 132V64.8H127.232C122.944 64.8 119.328 65.44 116.384 66.72C113.44 68 111.232 69.92 109.76 72.48C108.224 74.976 107.456 78.048 107.456 81.696C107.456 85.344 108.48 88.448 110.528 91.008C112.512 93.568 115.296 95.328 118.88 96.288V94.368C115.872 95.008 113.248 96.16 111.008 97.824C108.768 99.424 107.04 101.44 105.824 103.872C104.544 106.304 103.904 109.088 103.904 112.224C103.904 115.424 104.416 118.272 105.44 120.768C106.4 123.2 107.872 125.248 109.856 126.912C111.776 128.576 114.112 129.856 116.864 130.752C119.616 131.584 122.752 132 126.272 132H155.264ZM144.896 122.016H126.848C122.944 122.016 119.904 121.152 117.728 119.424C115.552 117.696 114.464 115.232 114.464 112.032C114.464 110.048 115.008 108.352 116.096 106.944C117.12 105.536 118.592 104.48 120.512 103.776C122.432 103.008 124.704 102.624 127.328 102.624H144.896V122.016ZM144.896 92.64H127.808C125.888 92.64 124.192 92.256 122.72 91.488C121.184 90.72 120 89.664 119.168 88.32C118.272 86.976 117.824 85.44 117.824 83.712C117.824 80.832 118.784 78.624 120.704 77.088C122.624 75.552 125.376 74.784 128.96 74.784H144.896V92.64Z" fill="#EAD111"/>
<path d="M155.264 132H156.264V133H155.264V132ZM155.264 64.8V63.8H156.264V64.8H155.264ZM116.384 66.72L116.783 67.6371V67.6371L116.384 66.72ZM109.76 72.48L110.627 72.9785L110.619 72.9914L110.612 73.0041L109.76 72.48ZM110.528 91.008L111.309 90.3833L111.314 90.3893L111.318 90.3954L110.528 91.008ZM118.88 96.288H119.88V97.5911L118.621 97.2539L118.88 96.288ZM118.88 94.368L118.672 93.3899L119.88 93.1328V94.368H118.88ZM111.008 97.824L111.604 98.6267L111.597 98.6323L111.589 98.6377L111.008 97.824ZM105.824 103.872L106.718 104.319L106.714 104.329L106.709 104.338L105.824 103.872ZM105.44 120.768L106.365 120.388L106.37 120.401L105.44 120.768ZM109.856 126.912L110.498 126.146L110.505 126.151L110.511 126.156L109.856 126.912ZM116.864 130.752L116.574 131.709L116.564 131.706L116.554 131.703L116.864 130.752ZM144.896 122.016H145.896V123.016H144.896V122.016ZM117.728 119.424L117.106 120.207V120.207L117.728 119.424ZM116.096 106.944L116.905 107.532L116.896 107.544L116.887 107.555L116.096 106.944ZM120.512 103.776L120.883 104.704L120.87 104.71L120.856 104.715L120.512 103.776ZM144.896 102.624V101.624H145.896V102.624H144.896ZM144.896 92.64H145.896V93.64H144.896V92.64ZM122.72 91.488L123.167 90.5936L123.175 90.5974L123.182 90.6014L122.72 91.488ZM119.168 88.32L120 87.7653L120.009 87.7793L120.018 87.7936L119.168 88.32ZM144.896 74.784V73.784H145.896V74.784H144.896ZM155.264 132H154.264V64.8H155.264H156.264V132H155.264ZM155.264 64.8V65.8H127.232V64.8V63.8H155.264V64.8ZM127.232 64.8V65.8C123.037 65.8 119.566 66.4268 116.783 67.6371L116.384 66.72L115.985 65.8029C119.09 64.4532 122.85 63.8 127.232 63.8V64.8ZM116.384 66.72L116.783 67.6371C114.017 68.8393 111.982 70.6211 110.627 72.9785L109.76 72.48L108.893 71.9815C110.481 69.2189 112.862 67.1607 115.985 65.8029L116.384 66.72ZM109.76 72.48L110.612 73.0041C109.194 75.3081 108.456 78.188 108.456 81.696H107.456H106.456C106.456 77.908 107.254 74.6439 108.908 71.9559L109.76 72.48ZM107.456 81.696H108.456C108.456 85.1441 109.419 88.0207 111.309 90.3833L110.528 91.008L109.747 91.6327C107.541 88.8753 106.456 85.5439 106.456 81.696H107.456ZM110.528 91.008L111.318 90.3954C113.149 92.7582 115.734 94.41 119.139 95.3221L118.88 96.288L118.621 97.2539C114.858 96.246 111.874 94.3778 109.737 91.6206L110.528 91.008ZM118.88 96.288H117.88V94.368H118.88H119.88V96.288H118.88ZM118.88 94.368L119.088 95.3461C116.206 95.9593 113.718 97.0568 111.604 98.6267L111.008 97.824L110.412 97.0213C112.778 95.2632 115.538 94.0567 118.672 93.3899L118.88 94.368ZM111.008 97.824L111.589 98.6377C109.48 100.144 107.86 102.035 106.718 104.319L105.824 103.872L104.929 103.425C106.219 100.845 108.056 98.7038 110.427 97.0103L111.008 97.824ZM105.824 103.872L106.709 104.338C105.514 106.607 104.904 109.227 104.904 112.224H103.904H102.904C102.904 108.949 103.573 106.001 104.939 103.406L105.824 103.872ZM103.904 112.224H104.904C104.904 115.318 105.399 118.033 106.365 120.388L105.44 120.768L104.515 121.148C103.433 118.511 102.904 115.53 102.904 112.224H103.904ZM105.44 120.768L106.37 120.401C107.27 122.68 108.643 124.59 110.498 126.146L109.856 126.912L109.213 127.678C107.1 125.906 105.53 123.72 104.51 121.135L105.44 120.768ZM109.856 126.912L110.511 126.156C112.317 127.721 114.531 128.941 117.173 129.801L116.864 130.752L116.554 131.703C113.693 130.771 111.235 129.431 109.201 127.668L109.856 126.912ZM116.864 130.752L117.153 129.795C119.793 130.593 122.829 131 126.272 131V132V133C122.675 133 119.439 132.575 116.574 131.709L116.864 130.752ZM126.272 132V131H155.264V132V133H126.272V132ZM144.896 122.016V123.016H126.848V122.016V121.016H144.896V122.016ZM126.848 122.016V123.016C122.808 123.016 119.518 122.123 117.106 120.207L117.728 119.424L118.35 118.641C120.29 120.181 123.08 121.016 126.848 121.016V122.016ZM117.728 119.424L117.106 120.207C114.653 118.259 113.464 115.485 113.464 112.032H114.464H115.464C115.464 114.979 116.451 117.133 118.35 118.641L117.728 119.424ZM114.464 112.032H113.464C113.464 109.854 114.066 107.936 115.305 106.333L116.096 106.944L116.887 107.555C115.95 108.768 115.464 110.242 115.464 112.032H114.464ZM116.096 106.944L115.287 106.356C116.447 104.761 118.095 103.597 120.168 102.837L120.512 103.776L120.856 104.715C119.089 105.363 117.793 106.311 116.905 107.532L116.096 106.944ZM120.512 103.776L120.14 102.848C122.206 102.021 124.609 101.624 127.328 101.624V102.624V103.624C124.798 103.624 122.658 103.995 120.883 104.704L120.512 103.776ZM127.328 102.624V101.624H144.896V102.624V103.624H127.328V102.624ZM144.896 102.624H145.896V122.016H144.896H143.896V102.624H144.896ZM144.896 92.64V93.64H127.808V92.64V91.64H144.896V92.64ZM127.808 92.64V93.64C125.752 93.64 123.893 93.228 122.257 92.3746L122.72 91.488L123.182 90.6014C124.491 91.284 126.024 91.64 127.808 91.64V92.64ZM122.72 91.488L122.273 92.3824C120.586 91.5389 119.256 90.3616 118.318 88.8464L119.168 88.32L120.018 87.7936C120.744 88.9664 121.782 89.9011 123.167 90.5936L122.72 91.488ZM119.168 88.32L118.336 88.8747C117.323 87.3548 116.824 85.623 116.824 83.712H117.824H118.824C118.824 85.257 119.221 86.5972 120 87.7653L119.168 88.32ZM117.824 83.712H116.824C116.824 80.5865 117.88 78.0665 120.079 76.3071L120.704 77.088L121.329 77.8689C119.688 79.1815 118.824 81.0775 118.824 83.712H117.824ZM120.704 77.088L120.079 76.3071C122.242 74.5771 125.249 73.784 128.96 73.784V74.784V75.784C125.502 75.784 123.006 76.5269 121.329 77.8689L120.704 77.088ZM128.96 74.784V73.784H144.896V74.784V75.784H128.96V74.784ZM144.896 74.784H145.896V92.64H144.896H143.896V74.784H144.896Z" fill="#160000" mask="url(#path-4-outside-2_9_3)"/>
</g>
<g filter="url(#filter3_d_9_3)">
<path d="M36.25 97.375C32.2625 97.375 28.849 95.8573 26.0094 92.8219C23.1698 89.7865 21.75 86.1375 21.75 81.875C21.75 77.6125 23.1698 73.9635 26.0094 70.9281C28.849 67.8927 32.2625 66.375 36.25 66.375C37.6396 66.375 38.9083 66.5688 40.0563 66.9563C41.2646 67.2792 42.4125 67.7958 43.5 68.5063V27.625H65.25V43.125H50.75V81.875C50.75 86.1375 49.3302 89.7865 46.4906 92.8219C43.651 95.8573 40.2375 97.375 36.25 97.375Z" fill="#EAD111"/>
<path d="M36.25 97.375C32.2625 97.375 28.849 95.8573 26.0094 92.8219C23.1698 89.7865 21.75 86.1375 21.75 81.875C21.75 77.6125 23.1698 73.9635 26.0094 70.9281C28.849 67.8927 32.2625 66.375 36.25 66.375C37.6396 66.375 38.9083 66.5688 40.0563 66.9563C41.2646 67.2792 42.4125 67.7958 43.5 68.5063V27.625H65.25V43.125H50.75V81.875C50.75 86.1375 49.3302 89.7865 46.4906 92.8219C43.651 95.8573 40.2375 97.375 36.25 97.375Z" stroke="#160000"/>
</g>
<defs>
<filter id="filter0_d_9_3" x="25.8144" y="104.9" width="76.5209" height="17.1" filterUnits="userSpaceOnUse" color-interpolation-filters="sRGB">
<feFlood flood-opacity="0" result="BackgroundImageFix"/>
<feColorMatrix in="SourceAlpha" type="matrix" values="0 0 0 0 0 0 0 0 0 0 0 0 0 0 0 0 0 0 127 0" result="hardAlpha"/>
<feOffset dy="4"/>
<feGaussianBlur stdDeviation="2"/>
<feComposite in2="hardAlpha" operator="out"/>
<feColorMatrix type="matrix" values="0 0 0 0 0 0 0 0 0 0 0 0 0 0 0 0 0 0 0.36 0"/>
<feBlend mode="normal" in2="BackgroundImageFix" result="effect1_dropShadow_9_3"/>
<feBlend mode="normal" in="SourceGraphic" in2="effect1_dropShadow_9_3" result="shape"/>
</filter>
<filter id="filter1_d_9_3" x="62.34" y="27.8" width="73.2297" height="77.2" filterUnits="userSpaceOnUse" color-interpolation-filters="sRGB">
<feFlood flood-opacity="0" result="BackgroundImageFix"/>
<feColorMatrix in="SourceAlpha" type="matrix" values="0 0 0 0 0 0 0 0 0 0 0 0 0 0 0 0 0 0 127 0" result="hardAlpha"/>
<feOffset dy="4"/>
<feGaussianBlur stdDeviation="2"/>
<feComposite in2="hardAlpha" operator="out"/>
<feColorMatrix type="matrix" values="0 0 0 0 0.0865385 0 0 0 0 0.00124815 0 0 0 0 0.00124815 0 0 0 0.5 0"/>
<feBlend mode="normal" in2="BackgroundImageFix" result="effect1_dropShadow_9_3"/>
<feBlend mode="normal" in="SourceGraphic" in2="effect1_dropShadow_9_3" result="shape"/>
</filter>
<filter id="filter2_d_9_3" x="98.9039" y="63.8" width="61.36" height="77.2" filterUnits="userSpaceOnUse" color-interpolation-filters="sRGB">
<feFlood flood-opacity="0" result="BackgroundImageFix"/>
<feColorMatrix in="SourceAlpha" type="matrix" values="0 0 0 0 0 0 0 0 0 0 0 0 0 0 0 0 0 0 127 0" result="hardAlpha"/>
<feOffset dy="4"/>
<feGaussianBlur stdDeviation="2"/>
<feColorMatrix type="matrix" values="0 0 0 0 0 0 0 0 0 0 0 0 0 0 0 0 0 0 0.42 0"/>
<feBlend mode="normal" in2="BackgroundImageFix" result="effect1_dropShadow_9_3"/>
<feBlend mode="normal" in="SourceGraphic" in2="effect1_dropShadow_9_3" result="shape"/>
</filter>
<filter id="filter3_d_9_3" x="17.25" y="27.125" width="52.5" height="78.75" filterUnits="userSpaceOnUse" color-interpolation-filters="sRGB">
<feFlood flood-opacity="0" result="BackgroundImageFix"/>
<feColorMatrix in="SourceAlpha" type="matrix" values="0 0 0 0 0 0 0 0 0 0 0 0 0 0 0 0 0 0 127 0" result="hardAlpha"/>
<feOffset dy="4"/>
<feGaussianBlur stdDeviation="2"/>
<feComposite in2="hardAlpha" operator="out"/>
<feColorMatrix type="matrix" values="0 0 0 0 0 0 0 0 0 0 0 0 0 0 0 0 0 0 0.42 0"/>
<feBlend mode="normal" in2="BackgroundImageFix" result="effect1_dropShadow_9_3"/>
<feBlend mode="normal" in="SourceGraphic" in2="effect1_dropShadow_9_3" result="shape"/>
</filter>
</defs>
</svg>
