<svg width="499" height="82" viewBox="0 0 499 82" fill="none" xmlns="http://www.w3.org/2000/svg">
<g filter="url(#filter0_d_2_5)">
<mask id="path-1-outside-1_2_5" maskUnits="userSpaceOnUse" x="3.97495" y="-0.919983" width="491" height="74" fill="black">
<rect fill="white" x="3.97495" y="-0.919983" width="491" height="74"/>
<path d="M13.1842 2.92001L35.4562 39.592L57.9202 2.92001H65.2162L38.8162 45.736V71.08H32.0962V45.544L5.7922 2.92001H13.1842ZM86.7749 72.04C83.1909 72.04 79.8629 71.368 76.7909 70.024C73.7189 68.616 71.0629 66.728 68.8229 64.36C66.5829 61.928 64.8229 59.144 63.5429 56.008C62.3269 52.872 61.7189 49.512 61.7189 45.928C61.7189 41.256 62.7749 36.968 64.8869 33.064C67.0629 29.16 70.0389 26.056 73.8149 23.752C77.5909 21.384 81.8789 20.2 86.6789 20.2C91.6069 20.2 95.8949 21.384 99.5429 23.752C103.255 26.12 106.167 29.256 108.279 33.16C110.391 37 111.447 41.224 111.447 45.832C111.447 46.344 111.447 46.856 111.447 47.368C111.447 47.816 111.415 48.168 111.351 48.424H68.5349C68.8549 52.008 69.8469 55.208 71.5109 58.024C73.2389 60.776 75.4469 62.984 78.1349 64.648C80.8869 66.248 83.8629 67.048 87.0629 67.048C90.3269 67.048 93.3989 66.216 96.2789 64.552C99.2229 62.888 101.271 60.712 102.423 58.024L108.087 59.56C107.063 61.928 105.495 64.072 103.383 65.992C101.271 67.912 98.7749 69.416 95.8949 70.504C93.0789 71.528 90.0389 72.04 86.7749 72.04ZM68.3429 43.72H105.303C105.047 40.072 104.055 36.872 102.327 34.12C100.663 31.368 98.4549 29.224 95.7029 27.688C93.0149 26.088 90.0389 25.288 86.7749 25.288C83.5109 25.288 80.5349 26.088 77.8469 27.688C75.1589 29.224 72.9509 31.4 71.2229 34.216C69.5589 36.968 68.5989 40.136 68.3429 43.72ZM121.807 1.00002H128.335V59.752C128.335 62.248 128.783 63.88 129.679 64.648C130.575 65.416 131.663 65.8 132.943 65.8C134.095 65.8 135.247 65.672 136.399 65.416C137.551 65.16 138.543 64.904 139.375 64.648L140.527 69.928C139.311 70.44 137.807 70.856 136.015 71.176C134.287 71.496 132.783 71.656 131.503 71.656C128.559 71.656 126.191 70.792 124.399 69.064C122.671 67.336 121.807 64.968 121.807 61.96V1.00002ZM147.963 1.00002H154.491V59.752C154.491 62.248 154.939 63.88 155.835 64.648C156.731 65.416 157.819 65.8 159.099 65.8C160.251 65.8 161.403 65.672 162.555 65.416C163.707 65.16 164.699 64.904 165.531 64.648L166.683 69.928C165.467 70.44 163.963 70.856 162.171 71.176C160.443 71.496 158.939 71.656 157.659 71.656C154.715 71.656 152.347 70.792 150.555 69.064C148.827 67.336 147.963 64.968 147.963 61.96V1.00002ZM195.143 72.04C191.559 72.04 188.231 71.368 185.159 70.024C182.151 68.616 179.527 66.728 177.287 64.36C175.111 61.928 173.415 59.176 172.199 56.104C170.983 52.968 170.375 49.672 170.375 46.216C170.375 42.632 170.983 39.304 172.199 36.232C173.415 33.096 175.143 30.344 177.383 27.976C179.623 25.544 182.247 23.656 185.255 22.312C188.327 20.904 191.655 20.2 195.239 20.2C198.823 20.2 202.119 20.904 205.127 22.312C208.135 23.656 210.759 25.544 212.999 27.976C215.239 30.344 216.967 33.096 218.183 36.232C219.399 39.304 220.007 42.632 220.007 46.216C220.007 49.672 219.399 52.968 218.183 56.104C216.967 59.176 215.239 61.928 212.999 64.36C210.823 66.728 208.199 68.616 205.127 70.024C202.119 71.368 198.791 72.04 195.143 72.04ZM176.999 46.312C176.999 50.024 177.799 53.416 179.399 56.488C181.063 59.496 183.271 61.896 186.023 63.688C188.775 65.416 191.815 66.28 195.143 66.28C198.471 66.28 201.511 65.384 204.263 63.592C207.015 61.8 209.223 59.368 210.887 56.296C212.551 53.16 213.383 49.768 213.383 46.12C213.383 42.408 212.551 39.016 210.887 35.944C209.223 32.872 207.015 30.44 204.263 28.648C201.511 26.856 198.471 25.96 195.143 25.96C191.815 25.96 188.775 26.888 186.023 28.744C183.335 30.6 181.159 33.064 179.495 36.136C177.831 39.144 176.999 42.536 176.999 46.312ZM292.213 21.064H298.645L277.141 71.08H271.477L261.013 46.216L250.645 71.08H244.981L223.477 21.064H229.813L248.053 64.36L257.269 41.8L248.821 21.16H254.677L261.013 37.384L267.445 21.16H273.205L264.853 41.8L274.069 64.36L292.213 21.064ZM381.689 53.512C381.689 56.904 380.825 59.944 379.097 62.632C377.369 65.256 375.033 67.336 372.089 68.872C369.209 70.344 366.041 71.08 362.585 71.08H330.425V2.92001H363.257C366.457 2.92001 369.209 3.78401 371.513 5.51201C373.881 7.17602 375.673 9.35202 376.889 12.04C378.169 14.664 378.809 17.416 378.809 20.296C378.809 23.688 377.945 26.824 376.217 29.704C374.489 32.584 372.089 34.728 369.017 36.136C372.921 37.288 375.993 39.432 378.233 42.568C380.537 45.704 381.689 49.352 381.689 53.512ZM374.969 52.36C374.969 50.056 374.457 47.944 373.433 46.024C372.409 44.04 371.001 42.44 369.209 41.224C367.481 40.008 365.497 39.4 363.257 39.4H337.145V65.224H362.585C364.889 65.224 366.969 64.616 368.825 63.4C370.681 62.184 372.153 60.616 373.241 58.696C374.393 56.712 374.969 54.6 374.969 52.36ZM337.145 8.77601V33.928H360.569C362.809 33.928 364.793 33.352 366.521 32.2C368.249 30.984 369.625 29.416 370.649 27.496C371.673 25.576 372.185 23.528 372.185 21.352C372.185 19.048 371.705 16.968 370.745 15.112C369.785 13.192 368.473 11.656 366.809 10.504C365.145 9.35201 363.257 8.77601 361.145 8.77601H337.145ZM393.019 71.08V21.064H399.547V71.08H393.019ZM393.019 10.6V1.00002H399.547V10.6H393.019ZM438.885 26.824C434.533 26.952 430.693 28.168 427.365 30.472C424.101 32.776 421.797 35.944 420.453 39.976V71.08H413.925V21.064H420.069V33.064C421.797 29.544 424.069 26.696 426.885 24.52C429.765 22.344 432.805 21.128 436.005 20.872C436.645 20.808 437.189 20.776 437.637 20.776C438.149 20.776 438.565 20.808 438.885 20.872V26.824ZM442.815 46.216C442.815 41.48 443.775 37.16 445.695 33.256C447.679 29.288 450.399 26.12 453.855 23.752C457.311 21.384 461.247 20.2 465.663 20.2C469.823 20.2 473.535 21.32 476.799 23.56C480.127 25.736 482.719 28.392 484.575 31.528V1.00002H491.103V63.208C491.103 64.104 491.295 64.776 491.679 65.224C492.063 65.608 492.639 65.832 493.407 65.896V71.08C492.127 71.272 491.135 71.336 490.431 71.272C489.087 71.208 487.903 70.664 486.879 69.64C485.855 68.616 485.343 67.496 485.343 66.28V61.384C483.359 64.648 480.671 67.24 477.279 69.16C473.887 71.08 470.367 72.04 466.719 72.04C463.263 72.04 460.063 71.336 457.119 69.928C454.239 68.52 451.711 66.6 449.535 64.168C447.423 61.736 445.759 58.984 444.543 55.912C443.391 52.776 442.815 49.544 442.815 46.216ZM484.575 53.896V38.44C483.743 36.136 482.399 34.056 480.543 32.2C478.687 30.28 476.575 28.776 474.207 27.688C471.903 26.536 469.599 25.96 467.295 25.96C464.607 25.96 462.175 26.536 459.999 27.688C457.823 28.776 455.935 30.28 454.335 32.2C452.799 34.12 451.615 36.296 450.783 38.728C449.951 41.16 449.535 43.656 449.535 46.216C449.535 48.904 449.983 51.464 450.879 53.896C451.839 56.328 453.183 58.504 454.911 60.424C456.639 62.28 458.623 63.72 460.863 64.744C463.103 65.768 465.535 66.28 468.159 66.28C469.823 66.28 471.551 65.96 473.343 65.32C475.135 64.68 476.831 63.816 478.431 62.728C480.095 61.576 481.471 60.232 482.559 58.696C483.647 57.16 484.319 55.56 484.575 53.896Z"/>
</mask>
<path d="M13.1842 2.92001L35.4562 39.592L57.9202 2.92001H65.2162L38.8162 45.736V71.08H32.0962V45.544L5.7922 2.92001H13.1842ZM86.7749 72.04C83.1909 72.04 79.8629 71.368 76.7909 70.024C73.7189 68.616 71.0629 66.728 68.8229 64.36C66.5829 61.928 64.8229 59.144 63.5429 56.008C62.3269 52.872 61.7189 49.512 61.7189 45.928C61.7189 41.256 62.7749 36.968 64.8869 33.064C67.0629 29.16 70.0389 26.056 73.8149 23.752C77.5909 21.384 81.8789 20.2 86.6789 20.2C91.6069 20.2 95.8949 21.384 99.5429 23.752C103.255 26.12 106.167 29.256 108.279 33.16C110.391 37 111.447 41.224 111.447 45.832C111.447 46.344 111.447 46.856 111.447 47.368C111.447 47.816 111.415 48.168 111.351 48.424H68.5349C68.8549 52.008 69.8469 55.208 71.5109 58.024C73.2389 60.776 75.4469 62.984 78.1349 64.648C80.8869 66.248 83.8629 67.048 87.0629 67.048C90.3269 67.048 93.3989 66.216 96.2789 64.552C99.2229 62.888 101.271 60.712 102.423 58.024L108.087 59.56C107.063 61.928 105.495 64.072 103.383 65.992C101.271 67.912 98.7749 69.416 95.8949 70.504C93.0789 71.528 90.0389 72.04 86.7749 72.04ZM68.3429 43.72H105.303C105.047 40.072 104.055 36.872 102.327 34.12C100.663 31.368 98.4549 29.224 95.7029 27.688C93.0149 26.088 90.0389 25.288 86.7749 25.288C83.5109 25.288 80.5349 26.088 77.8469 27.688C75.1589 29.224 72.9509 31.4 71.2229 34.216C69.5589 36.968 68.5989 40.136 68.3429 43.72ZM121.807 1.00002H128.335V59.752C128.335 62.248 128.783 63.88 129.679 64.648C130.575 65.416 131.663 65.8 132.943 65.8C134.095 65.8 135.247 65.672 136.399 65.416C137.551 65.16 138.543 64.904 139.375 64.648L140.527 69.928C139.311 70.44 137.807 70.856 136.015 71.176C134.287 71.496 132.783 71.656 131.503 71.656C128.559 71.656 126.191 70.792 124.399 69.064C122.671 67.336 121.807 64.968 121.807 61.96V1.00002ZM147.963 1.00002H154.491V59.752C154.491 62.248 154.939 63.88 155.835 64.648C156.731 65.416 157.819 65.8 159.099 65.8C160.251 65.8 161.403 65.672 162.555 65.416C163.707 65.16 164.699 64.904 165.531 64.648L166.683 69.928C165.467 70.44 163.963 70.856 162.171 71.176C160.443 71.496 158.939 71.656 157.659 71.656C154.715 71.656 152.347 70.792 150.555 69.064C148.827 67.336 147.963 64.968 147.963 61.96V1.00002ZM195.143 72.04C191.559 72.04 188.231 71.368 185.159 70.024C182.151 68.616 179.527 66.728 177.287 64.36C175.111 61.928 173.415 59.176 172.199 56.104C170.983 52.968 170.375 49.672 170.375 46.216C170.375 42.632 170.983 39.304 172.199 36.232C173.415 33.096 175.143 30.344 177.383 27.976C179.623 25.544 182.247 23.656 185.255 22.312C188.327 20.904 191.655 20.2 195.239 20.2C198.823 20.2 202.119 20.904 205.127 22.312C208.135 23.656 210.759 25.544 212.999 27.976C215.239 30.344 216.967 33.096 218.183 36.232C219.399 39.304 220.007 42.632 220.007 46.216C220.007 49.672 219.399 52.968 218.183 56.104C216.967 59.176 215.239 61.928 212.999 64.36C210.823 66.728 208.199 68.616 205.127 70.024C202.119 71.368 198.791 72.04 195.143 72.04ZM176.999 46.312C176.999 50.024 177.799 53.416 179.399 56.488C181.063 59.496 183.271 61.896 186.023 63.688C188.775 65.416 191.815 66.28 195.143 66.28C198.471 66.28 201.511 65.384 204.263 63.592C207.015 61.8 209.223 59.368 210.887 56.296C212.551 53.16 213.383 49.768 213.383 46.12C213.383 42.408 212.551 39.016 210.887 35.944C209.223 32.872 207.015 30.44 204.263 28.648C201.511 26.856 198.471 25.96 195.143 25.96C191.815 25.96 188.775 26.888 186.023 28.744C183.335 30.6 181.159 33.064 179.495 36.136C177.831 39.144 176.999 42.536 176.999 46.312ZM292.213 21.064H298.645L277.141 71.08H271.477L261.013 46.216L250.645 71.08H244.981L223.477 21.064H229.813L248.053 64.36L257.269 41.8L248.821 21.16H254.677L261.013 37.384L267.445 21.16H273.205L264.853 41.8L274.069 64.36L292.213 21.064ZM381.689 53.512C381.689 56.904 380.825 59.944 379.097 62.632C377.369 65.256 375.033 67.336 372.089 68.872C369.209 70.344 366.041 71.08 362.585 71.08H330.425V2.92001H363.257C366.457 2.92001 369.209 3.78401 371.513 5.51201C373.881 7.17602 375.673 9.35202 376.889 12.04C378.169 14.664 378.809 17.416 378.809 20.296C378.809 23.688 377.945 26.824 376.217 29.704C374.489 32.584 372.089 34.728 369.017 36.136C372.921 37.288 375.993 39.432 378.233 42.568C380.537 45.704 381.689 49.352 381.689 53.512ZM374.969 52.36C374.969 50.056 374.457 47.944 373.433 46.024C372.409 44.04 371.001 42.44 369.209 41.224C367.481 40.008 365.497 39.4 363.257 39.4H337.145V65.224H362.585C364.889 65.224 366.969 64.616 368.825 63.4C370.681 62.184 372.153 60.616 373.241 58.696C374.393 56.712 374.969 54.6 374.969 52.36ZM337.145 8.77601V33.928H360.569C362.809 33.928 364.793 33.352 366.521 32.2C368.249 30.984 369.625 29.416 370.649 27.496C371.673 25.576 372.185 23.528 372.185 21.352C372.185 19.048 371.705 16.968 370.745 15.112C369.785 13.192 368.473 11.656 366.809 10.504C365.145 9.35201 363.257 8.77601 361.145 8.77601H337.145ZM393.019 71.08V21.064H399.547V71.08H393.019ZM393.019 10.6V1.00002H399.547V10.6H393.019ZM438.885 26.824C434.533 26.952 430.693 28.168 427.365 30.472C424.101 32.776 421.797 35.944 420.453 39.976V71.08H413.925V21.064H420.069V33.064C421.797 29.544 424.069 26.696 426.885 24.52C429.765 22.344 432.805 21.128 436.005 20.872C436.645 20.808 437.189 20.776 437.637 20.776C438.149 20.776 438.565 20.808 438.885 20.872V26.824ZM442.815 46.216C442.815 41.48 443.775 37.16 445.695 33.256C447.679 29.288 450.399 26.12 453.855 23.752C457.311 21.384 461.247 20.2 465.663 20.2C469.823 20.2 473.535 21.32 476.799 23.56C480.127 25.736 482.719 28.392 484.575 31.528V1.00002H491.103V63.208C491.103 64.104 491.295 64.776 491.679 65.224C492.063 65.608 492.639 65.832 493.407 65.896V71.08C492.127 71.272 491.135 71.336 490.431 71.272C489.087 71.208 487.903 70.664 486.879 69.64C485.855 68.616 485.343 67.496 485.343 66.28V61.384C483.359 64.648 480.671 67.24 477.279 69.16C473.887 71.08 470.367 72.04 466.719 72.04C463.263 72.04 460.063 71.336 457.119 69.928C454.239 68.52 451.711 66.6 449.535 64.168C447.423 61.736 445.759 58.984 444.543 55.912C443.391 52.776 442.815 49.544 442.815 46.216ZM484.575 53.896V38.44C483.743 36.136 482.399 34.056 480.543 32.2C478.687 30.28 476.575 28.776 474.207 27.688C471.903 26.536 469.599 25.96 467.295 25.96C464.607 25.96 462.175 26.536 459.999 27.688C457.823 28.776 455.935 30.28 454.335 32.2C452.799 34.12 451.615 36.296 450.783 38.728C449.951 41.16 449.535 43.656 449.535 46.216C449.535 48.904 449.983 51.464 450.879 53.896C451.839 56.328 453.183 58.504 454.911 60.424C456.639 62.28 458.623 63.72 460.863 64.744C463.103 65.768 465.535 66.28 468.159 66.28C469.823 66.28 471.551 65.96 473.343 65.32C475.135 64.68 476.831 63.816 478.431 62.728C480.095 61.576 481.471 60.232 482.559 58.696C483.647 57.16 484.319 55.56 484.575 53.896Z" fill="#EAD111"/>
<path d="M13.1842 2.92001L14.0389 2.40092L13.7468 1.92001H13.1842V2.92001ZM35.4562 39.592L34.6015 40.1111L35.4525 41.5124L36.3089 40.1144L35.4562 39.592ZM57.9202 2.92001V1.92001H57.3601L57.0675 2.39766L57.9202 2.92001ZM65.2162 2.92001L66.0674 3.44485L67.0076 1.92001H65.2162V2.92001ZM38.8162 45.736L37.965 45.2112L37.8162 45.4525V45.736H38.8162ZM38.8162 71.08V72.08H39.8162V71.08H38.8162ZM32.0962 71.08H31.0962V72.08H32.0962V71.08ZM32.0962 45.544H33.0962V45.2603L32.9472 45.0189L32.0962 45.544ZM5.7922 2.92001V1.92001H3.99999L4.9412 3.44518L5.7922 2.92001ZM13.1842 2.92001L12.3295 3.43911L34.6015 40.1111L35.4562 39.592L36.3109 39.0729L14.0389 2.40092L13.1842 2.92001ZM35.4562 39.592L36.3089 40.1144L58.7729 3.44237L57.9202 2.92001L57.0675 2.39766L34.6035 39.0697L35.4562 39.592ZM57.9202 2.92001V3.92001H65.2162V2.92001V1.92001H57.9202V2.92001ZM65.2162 2.92001L64.365 2.39517L37.965 45.2112L38.8162 45.736L39.6674 46.2609L66.0674 3.44485L65.2162 2.92001ZM38.8162 45.736H37.8162V71.08H38.8162H39.8162V45.736H38.8162ZM38.8162 71.08V70.08H32.0962V71.08V72.08H38.8162V71.08ZM32.0962 71.08H33.0962V45.544H32.0962H31.0962V71.08H32.0962ZM32.0962 45.544L32.9472 45.0189L6.64319 2.39484L5.7922 2.92001L4.9412 3.44518L31.2452 46.0692L32.0962 45.544ZM5.7922 2.92001V3.92001H13.1842V2.92001V1.92001H5.7922V2.92001ZM76.7909 70.024L76.3743 70.9331L76.3822 70.9367L76.3901 70.9402L76.7909 70.024ZM68.8229 64.36L68.0873 65.0376L68.0965 65.0472L68.8229 64.36ZM63.5429 56.008L62.6106 56.3695L62.6138 56.3778L62.6171 56.3859L63.5429 56.008ZM64.8869 33.064L64.0134 32.5771L64.0074 32.5882L64.8869 33.064ZM73.8149 23.752L74.3358 24.6057L74.3462 24.5992L73.8149 23.752ZM99.5429 23.752L98.9985 24.5908L99.0051 24.5951L99.5429 23.752ZM108.279 33.16L107.399 33.6358L107.403 33.6419L108.279 33.16ZM111.351 48.424V49.424H112.132L112.321 48.6665L111.351 48.424ZM68.5349 48.424V47.424H67.4417L67.5389 48.5129L68.5349 48.424ZM71.5109 58.024L70.65 58.5327L70.6569 58.5444L70.6641 58.5558L71.5109 58.024ZM78.1349 64.648L77.6086 65.4983L77.6204 65.5056L77.6323 65.5125L78.1349 64.648ZM96.2789 64.552L95.7869 63.6814L95.7787 63.6861L96.2789 64.552ZM102.423 58.024L102.685 57.0589L101.846 56.8315L101.504 57.6301L102.423 58.024ZM108.087 59.56L109.005 59.9569L109.463 58.8971L108.349 58.5949L108.087 59.56ZM103.383 65.992L102.71 65.2521V65.2521L103.383 65.992ZM95.8949 70.504L96.2367 71.4439L96.2484 71.4395L95.8949 70.504ZM68.3429 43.72L67.3455 43.6488L67.269 44.72H68.3429V43.72ZM105.303 43.72V44.72H106.376L106.3 43.65L105.303 43.72ZM102.327 34.12L101.471 34.6374L101.476 34.6446L101.48 34.6518L102.327 34.12ZM95.7029 27.688L95.1915 28.5473L95.2034 28.5544L95.2156 28.5612L95.7029 27.688ZM77.8469 27.688L78.3431 28.5563L78.3508 28.5518L78.3584 28.5473L77.8469 27.688ZM71.2229 34.216L70.3706 33.693L70.3672 33.6986L71.2229 34.216ZM86.7749 72.04V71.04C83.3193 71.04 80.1288 70.3928 77.1918 69.1079L76.7909 70.024L76.3901 70.9402C79.5971 72.3432 83.0626 73.04 86.7749 73.04V72.04ZM76.7909 70.024L77.2076 69.115C74.2478 67.7584 71.6981 65.9443 69.5494 63.6728L68.8229 64.36L68.0965 65.0472C70.4278 67.5118 73.1901 69.4737 76.3743 70.9331L76.7909 70.024ZM68.8229 64.36L69.5585 63.6825C67.4013 61.3404 65.7048 58.6585 64.4688 55.6301L63.5429 56.008L62.6171 56.3859C63.941 59.6296 65.7646 62.5156 68.0874 65.0375L68.8229 64.36ZM63.5429 56.008L64.4753 55.6465C63.3069 52.6332 62.7189 49.3965 62.7189 45.928H61.7189H60.7189C60.7189 49.6275 61.347 53.1109 62.6106 56.3695L63.5429 56.008ZM61.7189 45.928H62.7189C62.7189 41.4131 63.7377 37.29 65.7665 33.5398L64.8869 33.064L64.0074 32.5882C61.8122 36.6461 60.7189 41.0989 60.7189 45.928H61.7189ZM64.8869 33.064L65.7604 33.5509C67.8534 29.7958 70.7086 26.8189 74.3358 24.6057L73.8149 23.752L73.2941 22.8984C69.3693 25.2932 66.2725 28.5242 64.0135 32.5772L64.8869 33.064ZM73.8149 23.752L74.3462 24.5992C77.9507 22.3388 82.0518 21.2 86.6789 21.2V20.2V19.2C81.7061 19.2 77.2312 20.4293 73.2837 22.9048L73.8149 23.752ZM86.6789 20.2V21.2C91.4402 21.2 95.5334 22.3416 98.9985 24.5908L99.5429 23.752L100.087 22.9132C96.2564 20.4265 91.7737 19.2 86.6789 19.2V20.2ZM99.5429 23.752L99.0051 24.5951C102.573 26.8709 105.368 29.88 107.399 33.6358L108.279 33.16L109.158 32.6842C106.966 28.632 103.937 25.3691 100.081 22.909L99.5429 23.752ZM108.279 33.16L107.403 33.6419C109.429 37.3266 110.447 41.3835 110.447 45.832H111.447H112.447C112.447 41.0645 111.353 36.6734 109.155 32.6781L108.279 33.16ZM111.447 45.832H110.447C110.447 45.833 110.447 45.834 110.447 45.835C110.447 45.836 110.447 45.837 110.447 45.838C110.447 45.839 110.447 45.84 110.447 45.841C110.447 45.842 110.447 45.843 110.447 45.844C110.447 45.845 110.447 45.846 110.447 45.847C110.447 45.848 110.447 45.849 110.447 45.85C110.447 45.851 110.447 45.852 110.447 45.853C110.447 45.854 110.447 45.855 110.447 45.856C110.447 45.857 110.447 45.858 110.447 45.859C110.447 45.86 110.447 45.861 110.447 45.862C110.447 45.863 110.447 45.864 110.447 45.865C110.447 45.866 110.447 45.867 110.447 45.868C110.447 45.869 110.447 45.87 110.447 45.871C110.447 45.872 110.447 45.873 110.447 45.874C110.447 45.875 110.447 45.876 110.447 45.877C110.447 45.878 110.447 45.879 110.447 45.88C110.447 45.881 110.447 45.882 110.447 45.883C110.447 45.884 110.447 45.885 110.447 45.886C110.447 45.887 110.447 45.888 110.447 45.889C110.447 45.89 110.447 45.891 110.447 45.892C110.447 45.893 110.447 45.894 110.447 45.895C110.447 45.896 110.447 45.897 110.447 45.898C110.447 45.899 110.447 45.9 110.447 45.901C110.447 45.902 110.447 45.903 110.447 45.904C110.447 45.905 110.447 45.906 110.447 45.907C110.447 45.908 110.447 45.909 110.447 45.91C110.447 45.911 110.447 45.912 110.447 45.913C110.447 45.914 110.447 45.915 110.447 45.916C110.447 45.917 110.447 45.918 110.447 45.919C110.447 45.92 110.447 45.921 110.447 45.922C110.447 45.923 110.447 45.924 110.447 45.925C110.447 45.926 110.447 45.927 110.447 45.928C110.447 45.929 110.447 45.93 110.447 45.931C110.447 45.932 110.447 45.933 110.447 45.934C110.447 45.935 110.447 45.936 110.447 45.937C110.447 45.938 110.447 45.939 110.447 45.94C110.447 45.941 110.447 45.942 110.447 45.943C110.447 45.944 110.447 45.945 110.447 45.946C110.447 45.947 110.447 45.948 110.447 45.949C110.447 45.95 110.447 45.951 110.447 45.952C110.447 45.953 110.447 45.954 110.447 45.955C110.447 45.956 110.447 45.957 110.447 45.958C110.447 45.959 110.447 45.96 110.447 45.961C110.447 45.962 110.447 45.963 110.447 45.964C110.447 45.965 110.447 45.966 110.447 45.967C110.447 45.968 110.447 45.969 110.447 45.97C110.447 45.971 110.447 45.972 110.447 45.973C110.447 45.974 110.447 45.975 110.447 45.976C110.447 45.977 110.447 45.978 110.447 45.979C110.447 45.98 110.447 45.981 110.447 45.982C110.447 45.983 110.447 45.984 110.447 45.985C110.447 45.986 110.447 45.987 110.447 45.988C110.447 45.989 110.447 45.99 110.447 45.991C110.447 45.992 110.447 45.993 110.447 45.994C110.447 45.995 110.447 45.996 110.447 45.997C110.447 45.998 110.447 45.999 110.447 46C110.447 46.001 110.447 46.002 110.447 46.003C110.447 46.004 110.447 46.005 110.447 46.006C110.447 46.007 110.447 46.008 110.447 46.009C110.447 46.01 110.447 46.011 110.447 46.012C110.447 46.013 110.447 46.014 110.447 46.015C110.447 46.016 110.447 46.017 110.447 46.018C110.447 46.019 110.447 46.02 110.447 46.021C110.447 46.022 110.447 46.023 110.447 46.024C110.447 46.025 110.447 46.026 110.447 46.027C110.447 46.028 110.447 46.029 110.447 46.03C110.447 46.031 110.447 46.032 110.447 46.033C110.447 46.034 110.447 46.035 110.447 46.036C110.447 46.037 110.447 46.038 110.447 46.039C110.447 46.04 110.447 46.041 110.447 46.042C110.447 46.043 110.447 46.044 110.447 46.045C110.447 46.046 110.447 46.047 110.447 46.048C110.447 46.049 110.447 46.05 110.447 46.051C110.447 46.052 110.447 46.053 110.447 46.054C110.447 46.055 110.447 46.056 110.447 46.057C110.447 46.058 110.447 46.059 110.447 46.06C110.447 46.061 110.447 46.062 110.447 46.063C110.447 46.064 110.447 46.065 110.447 46.066C110.447 46.067 110.447 46.068 110.447 46.069C110.447 46.07 110.447 46.071 110.447 46.072C110.447 46.073 110.447 46.074 110.447 46.075C110.447 46.076 110.447 46.077 110.447 46.078C110.447 46.079 110.447 46.08 110.447 46.081C110.447 46.082 110.447 46.083 110.447 46.084C110.447 46.085 110.447 46.086 110.447 46.087C110.447 46.088 110.447 46.089 110.447 46.09C110.447 46.091 110.447 46.092 110.447 46.093C110.447 46.094 110.447 46.095 110.447 46.096C110.447 46.097 110.447 46.098 110.447 46.099C110.447 46.1 110.447 46.101 110.447 46.102C110.447 46.103 110.447 46.104 110.447 46.105C110.447 46.106 110.447 46.107 110.447 46.108C110.447 46.109 110.447 46.11 110.447 46.111C110.447 46.112 110.447 46.113 110.447 46.114C110.447 46.115 110.447 46.116 110.447 46.117C110.447 46.118 110.447 46.119 110.447 46.12C110.447 46.121 110.447 46.122 110.447 46.123C110.447 46.124 110.447 46.125 110.447 46.126C110.447 46.127 110.447 46.128 110.447 46.129C110.447 46.13 110.447 46.131 110.447 46.132C110.447 46.133 110.447 46.134 110.447 46.135C110.447 46.136 110.447 46.137 110.447 46.138C110.447 46.139 110.447 46.14 110.447 46.141C110.447 46.142 110.447 46.143 110.447 46.144C110.447 46.145 110.447 46.146 110.447 46.147C110.447 46.148 110.447 46.149 110.447 46.15C110.447 46.151 110.447 46.152 110.447 46.153C110.447 46.154 110.447 46.155 110.447 46.156C110.447 46.157 110.447 46.158 110.447 46.159C110.447 46.16 110.447 46.161 110.447 46.162C110.447 46.163 110.447 46.164 110.447 46.165C110.447 46.166 110.447 46.167 110.447 46.168C110.447 46.169 110.447 46.17 110.447 46.171C110.447 46.172 110.447 46.173 110.447 46.174C110.447 46.175 110.447 46.176 110.447 46.177C110.447 46.178 110.447 46.179 110.447 46.18C110.447 46.181 110.447 46.182 110.447 46.183C110.447 46.184 110.447 46.185 110.447 46.186C110.447 46.187 110.447 46.188 110.447 46.189C110.447 46.19 110.447 46.191 110.447 46.192C110.447 46.193 110.447 46.194 110.447 46.195C110.447 46.196 110.447 46.197 110.447 46.198C110.447 46.199 110.447 46.2 110.447 46.201C110.447 46.202 110.447 46.203 110.447 46.204C110.447 46.205 110.447 46.206 110.447 46.207C110.447 46.208 110.447 46.209 110.447 46.21C110.447 46.211 110.447 46.212 110.447 46.213C110.447 46.214 110.447 46.215 110.447 46.216C110.447 46.217 110.447 46.218 110.447 46.219C110.447 46.22 110.447 46.221 110.447 46.222C110.447 46.223 110.447 46.224 110.447 46.225C110.447 46.226 110.447 46.227 110.447 46.228C110.447 46.229 110.447 46.23 110.447 46.231C110.447 46.232 110.447 46.233 110.447 46.234C110.447 46.235 110.447 46.236 110.447 46.237C110.447 46.238 110.447 46.239 110.447 46.24C110.447 46.241 110.447 46.242 110.447 46.243C110.447 46.244 110.447 46.245 110.447 46.246C110.447 46.247 110.447 46.248 110.447 46.249C110.447 46.25 110.447 46.251 110.447 46.252C110.447 46.253 110.447 46.254 110.447 46.255C110.447 46.256 110.447 46.257 110.447 46.258C110.447 46.259 110.447 46.26 110.447 46.261C110.447 46.262 110.447 46.263 110.447 46.264C110.447 46.265 110.447 46.266 110.447 46.267C110.447 46.268 110.447 46.269 110.447 46.27C110.447 46.271 110.447 46.272 110.447 46.273C110.447 46.274 110.447 46.275 110.447 46.276C110.447 46.277 110.447 46.278 110.447 46.279C110.447 46.28 110.447 46.281 110.447 46.282C110.447 46.283 110.447 46.284 110.447 46.285C110.447 46.286 110.447 46.287 110.447 46.288C110.447 46.289 110.447 46.29 110.447 46.291C110.447 46.292 110.447 46.293 110.447 46.294C110.447 46.295 110.447 46.296 110.447 46.297C110.447 46.298 110.447 46.299 110.447 46.3C110.447 46.301 110.447 46.302 110.447 46.303C110.447 46.304 110.447 46.305 110.447 46.306C110.447 46.307 110.447 46.308 110.447 46.309C110.447 46.31 110.447 46.311 110.447 46.312C110.447 46.313 110.447 46.314 110.447 46.315C110.447 46.316 110.447 46.317 110.447 46.318C110.447 46.319 110.447 46.32 110.447 46.321C110.447 46.322 110.447 46.323 110.447 46.324C110.447 46.325 110.447 46.326 110.447 46.327C110.447 46.328 110.447 46.329 110.447 46.33C110.447 46.331 110.447 46.332 110.447 46.333C110.447 46.334 110.447 46.335 110.447 46.336C110.447 46.337 110.447 46.338 110.447 46.339C110.447 46.34 110.447 46.341 110.447 46.342C110.447 46.343 110.447 46.344 110.447 46.345C110.447 46.346 110.447 46.347 110.447 46.348C110.447 46.349 110.447 46.35 110.447 46.351C110.447 46.352 110.447 46.353 110.447 46.354C110.447 46.355 110.447 46.356 110.447 46.357C110.447 46.358 110.447 46.359 110.447 46.36C110.447 46.361 110.447 46.362 110.447 46.363C110.447 46.364 110.447 46.365 110.447 46.366C110.447 46.367 110.447 46.368 110.447 46.369C110.447 46.37 110.447 46.371 110.447 46.372C110.447 46.373 110.447 46.374 110.447 46.375C110.447 46.376 110.447 46.377 110.447 46.378C110.447 46.379 110.447 46.38 110.447 46.381C110.447 46.382 110.447 46.383 110.447 46.384C110.447 46.385 110.447 46.386 110.447 46.387C110.447 46.388 110.447 46.389 110.447 46.39C110.447 46.391 110.447 46.392 110.447 46.393C110.447 46.394 110.447 46.395 110.447 46.396C110.447 46.397 110.447 46.398 110.447 46.399C110.447 46.4 110.447 46.401 110.447 46.402C110.447 46.403 110.447 46.404 110.447 46.405C110.447 46.406 110.447 46.407 110.447 46.408C110.447 46.409 110.447 46.41 110.447 46.411C110.447 46.412 110.447 46.413 110.447 46.414C110.447 46.415 110.447 46.416 110.447 46.417C110.447 46.418 110.447 46.419 110.447 46.42C110.447 46.421 110.447 46.422 110.447 46.423C110.447 46.424 110.447 46.425 110.447 46.426C110.447 46.427 110.447 46.428 110.447 46.429C110.447 46.43 110.447 46.431 110.447 46.432C110.447 46.433 110.447 46.434 110.447 46.435C110.447 46.436 110.447 46.437 110.447 46.438C110.447 46.439 110.447 46.44 110.447 46.441C110.447 46.442 110.447 46.443 110.447 46.444C110.447 46.445 110.447 46.446 110.447 46.447C110.447 46.448 110.447 46.449 110.447 46.45C110.447 46.451 110.447 46.452 110.447 46.453C110.447 46.454 110.447 46.455 110.447 46.456C110.447 46.457 110.447 46.458 110.447 46.459C110.447 46.46 110.447 46.461 110.447 46.462C110.447 46.463 110.447 46.464 110.447 46.465C110.447 46.466 110.447 46.467 110.447 46.468C110.447 46.469 110.447 46.47 110.447 46.471C110.447 46.472 110.447 46.473 110.447 46.474C110.447 46.475 110.447 46.476 110.447 46.477C110.447 46.478 110.447 46.479 110.447 46.48C110.447 46.481 110.447 46.482 110.447 46.483C110.447 46.484 110.447 46.485 110.447 46.486C110.447 46.487 110.447 46.488 110.447 46.489C110.447 46.49 110.447 46.491 110.447 46.492C110.447 46.493 110.447 46.494 110.447 46.495C110.447 46.496 110.447 46.497 110.447 46.498C110.447 46.499 110.447 46.5 110.447 46.501C110.447 46.502 110.447 46.503 110.447 46.504C110.447 46.505 110.447 46.506 110.447 46.507C110.447 46.508 110.447 46.509 110.447 46.51C110.447 46.511 110.447 46.512 110.447 46.513C110.447 46.514 110.447 46.515 110.447 46.516C110.447 46.517 110.447 46.518 110.447 46.519C110.447 46.52 110.447 46.521 110.447 46.522C110.447 46.523 110.447 46.524 110.447 46.525C110.447 46.526 110.447 46.527 110.447 46.528C110.447 46.529 110.447 46.53 110.447 46.531C110.447 46.532 110.447 46.533 110.447 46.534C110.447 46.535 110.447 46.536 110.447 46.537C110.447 46.538 110.447 46.539 110.447 46.54C110.447 46.541 110.447 46.542 110.447 46.543C110.447 46.544 110.447 46.545 110.447 46.546C110.447 46.547 110.447 46.548 110.447 46.549C110.447 46.55 110.447 46.551 110.447 46.552C110.447 46.553 110.447 46.554 110.447 46.555C110.447 46.556 110.447 46.557 110.447 46.558C110.447 46.559 110.447 46.56 110.447 46.561C110.447 46.562 110.447 46.563 110.447 46.564C110.447 46.565 110.447 46.566 110.447 46.567C110.447 46.568 110.447 46.569 110.447 46.57C110.447 46.571 110.447 46.572 110.447 46.573C110.447 46.574 110.447 46.575 110.447 46.576C110.447 46.577 110.447 46.578 110.447 46.579C110.447 46.58 110.447 46.581 110.447 46.582C110.447 46.583 110.447 46.584 110.447 46.585C110.447 46.586 110.447 46.587 110.447 46.588C110.447 46.589 110.447 46.59 110.447 46.591C110.447 46.592 110.447 46.593 110.447 46.594C110.447 46.595 110.447 46.596 110.447 46.597C110.447 46.598 110.447 46.599 110.447 46.6C110.447 46.601 110.447 46.602 110.447 46.603C110.447 46.604 110.447 46.605 110.447 46.606C110.447 46.607 110.447 46.608 110.447 46.609C110.447 46.61 110.447 46.611 110.447 46.612C110.447 46.613 110.447 46.614 110.447 46.615C110.447 46.616 110.447 46.617 110.447 46.618C110.447 46.619 110.447 46.62 110.447 46.621C110.447 46.622 110.447 46.623 110.447 46.624C110.447 46.625 110.447 46.626 110.447 46.627C110.447 46.628 110.447 46.629 110.447 46.63C110.447 46.631 110.447 46.632 110.447 46.633C110.447 46.634 110.447 46.635 110.447 46.636C110.447 46.637 110.447 46.638 110.447 46.639C110.447 46.64 110.447 46.641 110.447 46.642C110.447 46.643 110.447 46.644 110.447 46.645C110.447 46.646 110.447 46.647 110.447 46.648C110.447 46.649 110.447 46.65 110.447 46.651C110.447 46.652 110.447 46.653 110.447 46.654C110.447 46.655 110.447 46.656 110.447 46.657C110.447 46.658 110.447 46.659 110.447 46.66C110.447 46.661 110.447 46.662 110.447 46.663C110.447 46.664 110.447 46.665 110.447 46.666C110.447 46.667 110.447 46.668 110.447 46.669C110.447 46.67 110.447 46.671 110.447 46.672C110.447 46.673 110.447 46.674 110.447 46.675C110.447 46.676 110.447 46.677 110.447 46.678C110.447 46.679 110.447 46.68 110.447 46.681C110.447 46.682 110.447 46.683 110.447 46.684C110.447 46.685 110.447 46.686 110.447 46.687C110.447 46.688 110.447 46.689 110.447 46.69C110.447 46.691 110.447 46.692 110.447 46.693C110.447 46.694 110.447 46.695 110.447 46.696C110.447 46.697 110.447 46.698 110.447 46.699C110.447 46.7 110.447 46.701 110.447 46.702C110.447 46.703 110.447 46.704 110.447 46.705C110.447 46.706 110.447 46.707 110.447 46.708C110.447 46.709 110.447 46.71 110.447 46.711C110.447 46.712 110.447 46.713 110.447 46.714C110.447 46.715 110.447 46.716 110.447 46.717C110.447 46.718 110.447 46.719 110.447 46.72C110.447 46.721 110.447 46.722 110.447 46.723C110.447 46.724 110.447 46.725 110.447 46.726C110.447 46.727 110.447 46.728 110.447 46.729C110.447 46.73 110.447 46.731 110.447 46.732C110.447 46.733 110.447 46.734 110.447 46.735C110.447 46.736 110.447 46.737 110.447 46.738C110.447 46.739 110.447 46.74 110.447 46.741C110.447 46.742 110.447 46.743 110.447 46.744C110.447 46.745 110.447 46.746 110.447 46.747C110.447 46.748 110.447 46.749 110.447 46.75C110.447 46.751 110.447 46.752 110.447 46.753C110.447 46.754 110.447 46.755 110.447 46.756C110.447 46.757 110.447 46.758 110.447 46.759C110.447 46.76 110.447 46.761 110.447 46.762C110.447 46.763 110.447 46.764 110.447 46.765C110.447 46.766 110.447 46.767 110.447 46.768C110.447 46.769 110.447 46.77 110.447 46.771C110.447 46.772 110.447 46.773 110.447 46.774C110.447 46.775 110.447 46.776 110.447 46.777C110.447 46.778 110.447 46.779 110.447 46.78C110.447 46.781 110.447 46.782 110.447 46.783C110.447 46.784 110.447 46.785 110.447 46.786C110.447 46.787 110.447 46.788 110.447 46.789C110.447 46.79 110.447 46.791 110.447 46.792C110.447 46.793 110.447 46.794 110.447 46.795C110.447 46.796 110.447 46.797 110.447 46.798C110.447 46.799 110.447 46.8 110.447 46.801C110.447 46.802 110.447 46.803 110.447 46.804C110.447 46.805 110.447 46.806 110.447 46.807C110.447 46.808 110.447 46.809 110.447 46.81C110.447 46.811 110.447 46.812 110.447 46.813C110.447 46.814 110.447 46.815 110.447 46.816C110.447 46.817 110.447 46.818 110.447 46.819C110.447 46.82 110.447 46.821 110.447 46.822C110.447 46.823 110.447 46.824 110.447 46.825C110.447 46.826 110.447 46.827 110.447 46.828C110.447 46.829 110.447 46.83 110.447 46.831C110.447 46.832 110.447 46.833 110.447 46.834C110.447 46.835 110.447 46.836 110.447 46.837C110.447 46.838 110.447 46.839 110.447 46.84C110.447 46.841 110.447 46.842 110.447 46.843C110.447 46.844 110.447 46.845 110.447 46.846C110.447 46.847 110.447 46.848 110.447 46.849C110.447 46.85 110.447 46.851 110.447 46.852C110.447 46.853 110.447 46.854 110.447 46.855C110.447 46.856 110.447 46.857 110.447 46.858C110.447 46.859 110.447 46.86 110.447 46.861C110.447 46.862 110.447 46.863 110.447 46.864C110.447 46.865 110.447 46.866 110.447 46.867C110.447 46.868 110.447 46.869 110.447 46.87C110.447 46.871 110.447 46.872 110.447 46.873C110.447 46.874 110.447 46.875 110.447 46.876C110.447 46.877 110.447 46.878 110.447 46.879C110.447 46.88 110.447 46.881 110.447 46.882C110.447 46.883 110.447 46.884 110.447 46.885C110.447 46.886 110.447 46.887 110.447 46.888C110.447 46.889 110.447 46.89 110.447 46.891C110.447 46.892 110.447 46.893 110.447 46.894C110.447 46.895 110.447 46.896 110.447 46.897C110.447 46.898 110.447 46.899 110.447 46.9C110.447 46.901 110.447 46.902 110.447 46.903C110.447 46.904 110.447 46.905 110.447 46.906C110.447 46.907 110.447 46.908 110.447 46.909C110.447 46.91 110.447 46.911 110.447 46.912C110.447 46.913 110.447 46.914 110.447 46.915C110.447 46.916 110.447 46.917 110.447 46.918C110.447 46.919 110.447 46.92 110.447 46.921C110.447 46.922 110.447 46.923 110.447 46.924C110.447 46.925 110.447 46.926 110.447 46.927C110.447 46.928 110.447 46.929 110.447 46.93C110.447 46.931 110.447 46.932 110.447 46.933C110.447 46.934 110.447 46.935 110.447 46.936C110.447 46.937 110.447 46.938 110.447 46.939C110.447 46.94 110.447 46.941 110.447 46.942C110.447 46.943 110.447 46.944 110.447 46.945C110.447 46.946 110.447 46.947 110.447 46.948C110.447 46.949 110.447 46.95 110.447 46.951C110.447 46.952 110.447 46.953 110.447 46.954C110.447 46.955 110.447 46.956 110.447 46.957C110.447 46.958 110.447 46.959 110.447 46.96C110.447 46.961 110.447 46.962 110.447 46.963C110.447 46.964 110.447 46.965 110.447 46.966C110.447 46.967 110.447 46.968 110.447 46.969C110.447 46.97 110.447 46.971 110.447 46.972C110.447 46.973 110.447 46.974 110.447 46.975C110.447 46.976 110.447 46.977 110.447 46.978C110.447 46.979 110.447 46.98 110.447 46.981C110.447 46.982 110.447 46.983 110.447 46.984C110.447 46.985 110.447 46.986 110.447 46.987C110.447 46.988 110.447 46.989 110.447 46.99C110.447 46.991 110.447 46.992 110.447 46.993C110.447 46.994 110.447 46.995 110.447 46.996C110.447 46.997 110.447 46.998 110.447 46.999C110.447 47 110.447 47.001 110.447 47.002C110.447 47.003 110.447 47.004 110.447 47.005C110.447 47.006 110.447 47.007 110.447 47.008C110.447 47.009 110.447 47.01 110.447 47.011C110.447 47.012 110.447 47.013 110.447 47.014C110.447 47.015 110.447 47.016 110.447 47.017C110.447 47.018 110.447 47.019 110.447 47.02C110.447 47.021 110.447 47.022 110.447 47.023C110.447 47.024 110.447 47.025 110.447 47.026C110.447 47.027 110.447 47.028 110.447 47.029C110.447 47.03 110.447 47.031 110.447 47.032C110.447 47.033 110.447 47.034 110.447 47.035C110.447 47.036 110.447 47.037 110.447 47.038C110.447 47.039 110.447 47.04 110.447 47.041C110.447 47.042 110.447 47.043 110.447 47.044C110.447 47.045 110.447 47.046 110.447 47.047C110.447 47.048 110.447 47.049 110.447 47.05C110.447 47.051 110.447 47.052 110.447 47.053C110.447 47.054 110.447 47.055 110.447 47.056C110.447 47.057 110.447 47.058 110.447 47.059C110.447 47.06 110.447 47.061 110.447 47.062C110.447 47.063 110.447 47.064 110.447 47.065C110.447 47.066 110.447 47.067 110.447 47.068C110.447 47.069 110.447 47.07 110.447 47.071C110.447 47.072 110.447 47.073 110.447 47.074C110.447 47.075 110.447 47.076 110.447 47.077C110.447 47.078 110.447 47.079 110.447 47.08C110.447 47.081 110.447 47.082 110.447 47.083C110.447 47.084 110.447 47.085 110.447 47.086C110.447 47.087 110.447 47.088 110.447 47.089C110.447 47.09 110.447 47.091 110.447 47.092C110.447 47.093 110.447 47.094 110.447 47.095C110.447 47.096 110.447 47.097 110.447 47.098C110.447 47.099 110.447 47.1 110.447 47.101C110.447 47.102 110.447 47.103 110.447 47.104C110.447 47.105 110.447 47.106 110.447 47.107C110.447 47.108 110.447 47.109 110.447 47.11C110.447 47.111 110.447 47.112 110.447 47.113C110.447 47.114 110.447 47.115 110.447 47.116C110.447 47.117 110.447 47.118 110.447 47.119C110.447 47.12 110.447 47.121 110.447 47.122C110.447 47.123 110.447 47.124 110.447 47.125C110.447 47.126 110.447 47.127 110.447 47.128C110.447 47.129 110.447 47.13 110.447 47.131C110.447 47.132 110.447 47.133 110.447 47.134C110.447 47.135 110.447 47.136 110.447 47.137C110.447 47.138 110.447 47.139 110.447 47.14C110.447 47.141 110.447 47.142 110.447 47.143C110.447 47.144 110.447 47.145 110.447 47.146C110.447 47.147 110.447 47.148 110.447 47.149C110.447 47.15 110.447 47.151 110.447 47.152C110.447 47.153 110.447 47.154 110.447 47.155C110.447 47.156 110.447 47.157 110.447 47.158C110.447 47.159 110.447 47.16 110.447 47.161C110.447 47.162 110.447 47.163 110.447 47.164C110.447 47.165 110.447 47.166 110.447 47.167C110.447 47.168 110.447 47.169 110.447 47.17C110.447 47.171 110.447 47.172 110.447 47.173C110.447 47.174 110.447 47.175 110.447 47.176C110.447 47.177 110.447 47.178 110.447 47.179C110.447 47.18 110.447 47.181 110.447 47.182C110.447 47.183 110.447 47.184 110.447 47.185C110.447 47.186 110.447 47.187 110.447 47.188C110.447 47.189 110.447 47.19 110.447 47.191C110.447 47.192 110.447 47.193 110.447 47.194C110.447 47.195 110.447 47.196 110.447 47.197C110.447 47.198 110.447 47.199 110.447 47.2C110.447 47.201 110.447 47.202 110.447 47.203C110.447 47.204 110.447 47.205 110.447 47.206C110.447 47.207 110.447 47.208 110.447 47.209C110.447 47.21 110.447 47.211 110.447 47.212C110.447 47.213 110.447 47.214 110.447 47.215C110.447 47.216 110.447 47.217 110.447 47.218C110.447 47.219 110.447 47.22 110.447 47.221C110.447 47.222 110.447 47.223 110.447 47.224C110.447 47.225 110.447 47.226 110.447 47.227C110.447 47.228 110.447 47.229 110.447 47.23C110.447 47.231 110.447 47.232 110.447 47.233C110.447 47.234 110.447 47.235 110.447 47.236C110.447 47.237 110.447 47.238 110.447 47.239C110.447 47.24 110.447 47.241 110.447 47.242C110.447 47.243 110.447 47.244 110.447 47.245C110.447 47.246 110.447 47.247 110.447 47.248C110.447 47.249 110.447 47.25 110.447 47.251C110.447 47.252 110.447 47.253 110.447 47.254C110.447 47.255 110.447 47.256 110.447 47.257C110.447 47.258 110.447 47.259 110.447 47.26C110.447 47.261 110.447 47.262 110.447 47.263C110.447 47.264 110.447 47.265 110.447 47.266C110.447 47.267 110.447 47.268 110.447 47.269C110.447 47.27 110.447 47.271 110.447 47.272C110.447 47.273 110.447 47.274 110.447 47.275C110.447 47.276 110.447 47.277 110.447 47.278C110.447 47.279 110.447 47.28 110.447 47.281C110.447 47.282 110.447 47.283 110.447 47.284C110.447 47.285 110.447 47.286 110.447 47.287C110.447 47.288 110.447 47.289 110.447 47.29C110.447 47.291 110.447 47.292 110.447 47.293C110.447 47.294 110.447 47.295 110.447 47.296C110.447 47.297 110.447 47.298 110.447 47.299C110.447 47.3 110.447 47.301 110.447 47.302C110.447 47.303 110.447 47.304 110.447 47.305C110.447 47.306 110.447 47.307 110.447 47.308C110.447 47.309 110.447 47.31 110.447 47.311C110.447 47.312 110.447 47.313 110.447 47.314C110.447 47.315 110.447 47.316 110.447 47.317C110.447 47.318 110.447 47.319 110.447 47.32C110.447 47.321 110.447 47.322 110.447 47.323C110.447 47.324 110.447 47.325 110.447 47.326C110.447 47.327 110.447 47.328 110.447 47.329C110.447 47.33 110.447 47.331 110.447 47.332C110.447 47.333 110.447 47.334 110.447 47.335C110.447 47.336 110.447 47.337 110.447 47.338C110.447 47.339 110.447 47.34 110.447 47.341C110.447 47.342 110.447 47.343 110.447 47.344C110.447 47.345 110.447 47.346 110.447 47.347C110.447 47.348 110.447 47.349 110.447 47.35C110.447 47.351 110.447 47.352 110.447 47.353C110.447 47.354 110.447 47.355 110.447 47.356C110.447 47.357 110.447 47.358 110.447 47.359C110.447 47.36 110.447 47.361 110.447 47.362C110.447 47.363 110.447 47.364 110.447 47.365C110.447 47.366 110.447 47.367 110.447 47.368H111.447H112.447C112.447 47.367 112.447 47.366 112.447 47.365C112.447 47.364 112.447 47.363 112.447 47.362C112.447 47.361 112.447 47.36 112.447 47.359C112.447 47.358 112.447 47.357 112.447 47.356C112.447 47.355 112.447 47.354 112.447 47.353C112.447 47.352 112.447 47.351 112.447 47.35C112.447 47.349 112.447 47.348 112.447 47.347C112.447 47.346 112.447 47.345 112.447 47.344C112.447 47.343 112.447 47.342 112.447 47.341C112.447 47.34 112.447 47.339 112.447 47.338C112.447 47.337 112.447 47.336 112.447 47.335C112.447 47.334 112.447 47.333 112.447 47.332C112.447 47.331 112.447 47.33 112.447 47.329C112.447 47.328 112.447 47.327 112.447 47.326C112.447 47.325 112.447 47.324 112.447 47.323C112.447 47.322 112.447 47.321 112.447 47.32C112.447 47.319 112.447 47.318 112.447 47.317C112.447 47.316 112.447 47.315 112.447 47.314C112.447 47.313 112.447 47.312 112.447 47.311C112.447 47.31 112.447 47.309 112.447 47.308C112.447 47.307 112.447 47.306 112.447 47.305C112.447 47.304 112.447 47.303 112.447 47.302C112.447 47.301 112.447 47.3 112.447 47.299C112.447 47.298 112.447 47.297 112.447 47.296C112.447 47.295 112.447 47.294 112.447 47.293C112.447 47.292 112.447 47.291 112.447 47.29C112.447 47.289 112.447 47.288 112.447 47.287C112.447 47.286 112.447 47.285 112.447 47.284C112.447 47.283 112.447 47.282 112.447 47.281C112.447 47.28 112.447 47.279 112.447 47.278C112.447 47.277 112.447 47.276 112.447 47.275C112.447 47.274 112.447 47.273 112.447 47.272C112.447 47.271 112.447 47.27 112.447 47.269C112.447 47.268 112.447 47.267 112.447 47.266C112.447 47.265 112.447 47.264 112.447 47.263C112.447 47.262 112.447 47.261 112.447 47.26C112.447 47.259 112.447 47.258 112.447 47.257C112.447 47.256 112.447 47.255 112.447 47.254C112.447 47.253 112.447 47.252 112.447 47.251C112.447 47.25 112.447 47.249 112.447 47.248C112.447 47.247 112.447 47.246 112.447 47.245C112.447 47.244 112.447 47.243 112.447 47.242C112.447 47.241 112.447 47.24 112.447 47.239C112.447 47.238 112.447 47.237 112.447 47.236C112.447 47.235 112.447 47.234 112.447 47.233C112.447 47.232 112.447 47.231 112.447 47.23C112.447 47.229 112.447 47.228 112.447 47.227C112.447 47.226 112.447 47.225 112.447 47.224C112.447 47.223 112.447 47.222 112.447 47.221C112.447 47.22 112.447 47.219 112.447 47.218C112.447 47.217 112.447 47.216 112.447 47.215C112.447 47.214 112.447 47.213 112.447 47.212C112.447 47.211 112.447 47.21 112.447 47.209C112.447 47.208 112.447 47.207 112.447 47.206C112.447 47.205 112.447 47.204 112.447 47.203C112.447 47.202 112.447 47.201 112.447 47.2C112.447 47.199 112.447 47.198 112.447 47.197C112.447 47.196 112.447 47.195 112.447 47.194C112.447 47.193 112.447 47.192 112.447 47.191C112.447 47.19 112.447 47.189 112.447 47.188C112.447 47.187 112.447 47.186 112.447 47.185C112.447 47.184 112.447 47.183 112.447 47.182C112.447 47.181 112.447 47.18 112.447 47.179C112.447 47.178 112.447 47.177 112.447 47.176C112.447 47.175 112.447 47.174 112.447 47.173C112.447 47.172 112.447 47.171 112.447 47.17C112.447 47.169 112.447 47.168 112.447 47.167C112.447 47.166 112.447 47.165 112.447 47.164C112.447 47.163 112.447 47.162 112.447 47.161C112.447 47.16 112.447 47.159 112.447 47.158C112.447 47.157 112.447 47.156 112.447 47.155C112.447 47.154 112.447 47.153 112.447 47.152C112.447 47.151 112.447 47.15 112.447 47.149C112.447 47.148 112.447 47.147 112.447 47.146C112.447 47.145 112.447 47.144 112.447 47.143C112.447 47.142 112.447 47.141 112.447 47.14C112.447 47.139 112.447 47.138 112.447 47.137C112.447 47.136 112.447 47.135 112.447 47.134C112.447 47.133 112.447 47.132 112.447 47.131C112.447 47.13 112.447 47.129 112.447 47.128C112.447 47.127 112.447 47.126 112.447 47.125C112.447 47.124 112.447 47.123 112.447 47.122C112.447 47.121 112.447 47.12 112.447 47.119C112.447 47.118 112.447 47.117 112.447 47.116C112.447 47.115 112.447 47.114 112.447 47.113C112.447 47.112 112.447 47.111 112.447 47.11C112.447 47.109 112.447 47.108 112.447 47.107C112.447 47.106 112.447 47.105 112.447 47.104C112.447 47.103 112.447 47.102 112.447 47.101C112.447 47.1 112.447 47.099 112.447 47.098C112.447 47.097 112.447 47.096 112.447 47.095C112.447 47.094 112.447 47.093 112.447 47.092C112.447 47.091 112.447 47.09 112.447 47.089C112.447 47.088 112.447 47.087 112.447 47.086C112.447 47.085 112.447 47.084 112.447 47.083C112.447 47.082 112.447 47.081 112.447 47.08C112.447 47.079 112.447 47.078 112.447 47.077C112.447 47.076 112.447 47.075 112.447 47.074C112.447 47.073 112.447 47.072 112.447 47.071C112.447 47.07 112.447 47.069 112.447 47.068C112.447 47.067 112.447 47.066 112.447 47.065C112.447 47.064 112.447 47.063 112.447 47.062C112.447 47.061 112.447 47.06 112.447 47.059C112.447 47.058 112.447 47.057 112.447 47.056C112.447 47.055 112.447 47.054 112.447 47.053C112.447 47.052 112.447 47.051 112.447 47.05C112.447 47.049 112.447 47.048 112.447 47.047C112.447 47.046 112.447 47.045 112.447 47.044C112.447 47.043 112.447 47.042 112.447 47.041C112.447 47.04 112.447 47.039 112.447 47.038C112.447 47.037 112.447 47.036 112.447 47.035C112.447 47.034 112.447 47.033 112.447 47.032C112.447 47.031 112.447 47.03 112.447 47.029C112.447 47.028 112.447 47.027 112.447 47.026C112.447 47.025 112.447 47.024 112.447 47.023C112.447 47.022 112.447 47.021 112.447 47.02C112.447 47.019 112.447 47.018 112.447 47.017C112.447 47.016 112.447 47.015 112.447 47.014C112.447 47.013 112.447 47.012 112.447 47.011C112.447 47.01 112.447 47.009 112.447 47.008C112.447 47.007 112.447 47.006 112.447 47.005C112.447 47.004 112.447 47.003 112.447 47.002C112.447 47.001 112.447 47 112.447 46.999C112.447 46.998 112.447 46.997 112.447 46.996C112.447 46.995 112.447 46.994 112.447 46.993C112.447 46.992 112.447 46.991 112.447 46.99C112.447 46.989 112.447 46.988 112.447 46.987C112.447 46.986 112.447 46.985 112.447 46.984C112.447 46.983 112.447 46.982 112.447 46.981C112.447 46.98 112.447 46.979 112.447 46.978C112.447 46.977 112.447 46.976 112.447 46.975C112.447 46.974 112.447 46.973 112.447 46.972C112.447 46.971 112.447 46.97 112.447 46.969C112.447 46.968 112.447 46.967 112.447 46.966C112.447 46.965 112.447 46.964 112.447 46.963C112.447 46.962 112.447 46.961 112.447 46.96C112.447 46.959 112.447 46.958 112.447 46.957C112.447 46.956 112.447 46.955 112.447 46.954C112.447 46.953 112.447 46.952 112.447 46.951C112.447 46.95 112.447 46.949 112.447 46.948C112.447 46.947 112.447 46.946 112.447 46.945C112.447 46.944 112.447 46.943 112.447 46.942C112.447 46.941 112.447 46.94 112.447 46.939C112.447 46.938 112.447 46.937 112.447 46.936C112.447 46.935 112.447 46.934 112.447 46.933C112.447 46.932 112.447 46.931 112.447 46.93C112.447 46.929 112.447 46.928 112.447 46.927C112.447 46.926 112.447 46.925 112.447 46.924C112.447 46.923 112.447 46.922 112.447 46.921C112.447 46.92 112.447 46.919 112.447 46.918C112.447 46.917 112.447 46.916 112.447 46.915C112.447 46.914 112.447 46.913 112.447 46.912C112.447 46.911 112.447 46.91 112.447 46.909C112.447 46.908 112.447 46.907 112.447 46.906C112.447 46.905 112.447 46.904 112.447 46.903C112.447 46.902 112.447 46.901 112.447 46.9C112.447 46.899 112.447 46.898 112.447 46.897C112.447 46.896 112.447 46.895 112.447 46.894C112.447 46.893 112.447 46.892 112.447 46.891C112.447 46.89 112.447 46.889 112.447 46.888C112.447 46.887 112.447 46.886 112.447 46.885C112.447 46.884 112.447 46.883 112.447 46.882C112.447 46.881 112.447 46.88 112.447 46.879C112.447 46.878 112.447 46.877 112.447 46.876C112.447 46.875 112.447 46.874 112.447 46.873C112.447 46.872 112.447 46.871 112.447 46.87C112.447 46.869 112.447 46.868 112.447 46.867C112.447 46.866 112.447 46.865 112.447 46.864C112.447 46.863 112.447 46.862 112.447 46.861C112.447 46.86 112.447 46.859 112.447 46.858C112.447 46.857 112.447 46.856 112.447 46.855C112.447 46.854 112.447 46.853 112.447 46.852C112.447 46.851 112.447 46.85 112.447 46.849C112.447 46.848 112.447 46.847 112.447 46.846C112.447 46.845 112.447 46.844 112.447 46.843C112.447 46.842 112.447 46.841 112.447 46.84C112.447 46.839 112.447 46.838 112.447 46.837C112.447 46.836 112.447 46.835 112.447 46.834C112.447 46.833 112.447 46.832 112.447 46.831C112.447 46.83 112.447 46.829 112.447 46.828C112.447 46.827 112.447 46.826 112.447 46.825C112.447 46.824 112.447 46.823 112.447 46.822C112.447 46.821 112.447 46.82 112.447 46.819C112.447 46.818 112.447 46.817 112.447 46.816C112.447 46.815 112.447 46.814 112.447 46.813C112.447 46.812 112.447 46.811 112.447 46.81C112.447 46.809 112.447 46.808 112.447 46.807C112.447 46.806 112.447 46.805 112.447 46.804C112.447 46.803 112.447 46.802 112.447 46.801C112.447 46.8 112.447 46.799 112.447 46.798C112.447 46.797 112.447 46.796 112.447 46.795C112.447 46.794 112.447 46.793 112.447 46.792C112.447 46.791 112.447 46.79 112.447 46.789C112.447 46.788 112.447 46.787 112.447 46.786C112.447 46.785 112.447 46.784 112.447 46.783C112.447 46.782 112.447 46.781 112.447 46.78C112.447 46.779 112.447 46.778 112.447 46.777C112.447 46.776 112.447 46.775 112.447 46.774C112.447 46.773 112.447 46.772 112.447 46.771C112.447 46.77 112.447 46.769 112.447 46.768C112.447 46.767 112.447 46.766 112.447 46.765C112.447 46.764 112.447 46.763 112.447 46.762C112.447 46.761 112.447 46.76 112.447 46.759C112.447 46.758 112.447 46.757 112.447 46.756C112.447 46.755 112.447 46.754 112.447 46.753C112.447 46.752 112.447 46.751 112.447 46.75C112.447 46.749 112.447 46.748 112.447 46.747C112.447 46.746 112.447 46.745 112.447 46.744C112.447 46.743 112.447 46.742 112.447 46.741C112.447 46.74 112.447 46.739 112.447 46.738C112.447 46.737 112.447 46.736 112.447 46.735C112.447 46.734 112.447 46.733 112.447 46.732C112.447 46.731 112.447 46.73 112.447 46.729C112.447 46.728 112.447 46.727 112.447 46.726C112.447 46.725 112.447 46.724 112.447 46.723C112.447 46.722 112.447 46.721 112.447 46.72C112.447 46.719 112.447 46.718 112.447 46.717C112.447 46.716 112.447 46.715 112.447 46.714C112.447 46.713 112.447 46.712 112.447 46.711C112.447 46.71 112.447 46.709 112.447 46.708C112.447 46.707 112.447 46.706 112.447 46.705C112.447 46.704 112.447 46.703 112.447 46.702C112.447 46.701 112.447 46.7 112.447 46.699C112.447 46.698 112.447 46.697 112.447 46.696C112.447 46.695 112.447 46.694 112.447 46.693C112.447 46.692 112.447 46.691 112.447 46.69C112.447 46.689 112.447 46.688 112.447 46.687C112.447 46.686 112.447 46.685 112.447 46.684C112.447 46.683 112.447 46.682 112.447 46.681C112.447 46.68 112.447 46.679 112.447 46.678C112.447 46.677 112.447 46.676 112.447 46.675C112.447 46.674 112.447 46.673 112.447 46.672C112.447 46.671 112.447 46.67 112.447 46.669C112.447 46.668 112.447 46.667 112.447 46.666C112.447 46.665 112.447 46.664 112.447 46.663C112.447 46.662 112.447 46.661 112.447 46.66C112.447 46.659 112.447 46.658 112.447 46.657C112.447 46.656 112.447 46.655 112.447 46.654C112.447 46.653 112.447 46.652 112.447 46.651C112.447 46.65 112.447 46.649 112.447 46.648C112.447 46.647 112.447 46.646 112.447 46.645C112.447 46.644 112.447 46.643 112.447 46.642C112.447 46.641 112.447 46.64 112.447 46.639C112.447 46.638 112.447 46.637 112.447 46.636C112.447 46.635 112.447 46.634 112.447 46.633C112.447 46.632 112.447 46.631 112.447 46.63C112.447 46.629 112.447 46.628 112.447 46.627C112.447 46.626 112.447 46.625 112.447 46.624C112.447 46.623 112.447 46.622 112.447 46.621C112.447 46.62 112.447 46.619 112.447 46.618C112.447 46.617 112.447 46.616 112.447 46.615C112.447 46.614 112.447 46.613 112.447 46.612C112.447 46.611 112.447 46.61 112.447 46.609C112.447 46.608 112.447 46.607 112.447 46.606C112.447 46.605 112.447 46.604 112.447 46.603C112.447 46.602 112.447 46.601 112.447 46.6C112.447 46.599 112.447 46.598 112.447 46.597C112.447 46.596 112.447 46.595 112.447 46.594C112.447 46.593 112.447 46.592 112.447 46.591C112.447 46.59 112.447 46.589 112.447 46.588C112.447 46.587 112.447 46.586 112.447 46.585C112.447 46.584 112.447 46.583 112.447 46.582C112.447 46.581 112.447 46.58 112.447 46.579C112.447 46.578 112.447 46.577 112.447 46.576C112.447 46.575 112.447 46.574 112.447 46.573C112.447 46.572 112.447 46.571 112.447 46.57C112.447 46.569 112.447 46.568 112.447 46.567C112.447 46.566 112.447 46.565 112.447 46.564C112.447 46.563 112.447 46.562 112.447 46.561C112.447 46.56 112.447 46.559 112.447 46.558C112.447 46.557 112.447 46.556 112.447 46.555C112.447 46.554 112.447 46.553 112.447 46.552C112.447 46.551 112.447 46.55 112.447 46.549C112.447 46.548 112.447 46.547 112.447 46.546C112.447 46.545 112.447 46.544 112.447 46.543C112.447 46.542 112.447 46.541 112.447 46.54C112.447 46.539 112.447 46.538 112.447 46.537C112.447 46.536 112.447 46.535 112.447 46.534C112.447 46.533 112.447 46.532 112.447 46.531C112.447 46.53 112.447 46.529 112.447 46.528C112.447 46.527 112.447 46.526 112.447 46.525C112.447 46.524 112.447 46.523 112.447 46.522C112.447 46.521 112.447 46.52 112.447 46.519C112.447 46.518 112.447 46.517 112.447 46.516C112.447 46.515 112.447 46.514 112.447 46.513C112.447 46.512 112.447 46.511 112.447 46.51C112.447 46.509 112.447 46.508 112.447 46.507C112.447 46.506 112.447 46.505 112.447 46.504C112.447 46.503 112.447 46.502 112.447 46.501C112.447 46.5 112.447 46.499 112.447 46.498C112.447 46.497 112.447 46.496 112.447 46.495C112.447 46.494 112.447 46.493 112.447 46.492C112.447 46.491 112.447 46.49 112.447 46.489C112.447 46.488 112.447 46.487 112.447 46.486C112.447 46.485 112.447 46.484 112.447 46.483C112.447 46.482 112.447 46.481 112.447 46.48C112.447 46.479 112.447 46.478 112.447 46.477C112.447 46.476 112.447 46.475 112.447 46.474C112.447 46.473 112.447 46.472 112.447 46.471C112.447 46.47 112.447 46.469 112.447 46.468C112.447 46.467 112.447 46.466 112.447 46.465C112.447 46.464 112.447 46.463 112.447 46.462C112.447 46.461 112.447 46.46 112.447 46.459C112.447 46.458 112.447 46.457 112.447 46.456C112.447 46.455 112.447 46.454 112.447 46.453C112.447 46.452 112.447 46.451 112.447 46.45C112.447 46.449 112.447 46.448 112.447 46.447C112.447 46.446 112.447 46.445 112.447 46.444C112.447 46.443 112.447 46.442 112.447 46.441C112.447 46.44 112.447 46.439 112.447 46.438C112.447 46.437 112.447 46.436 112.447 46.435C112.447 46.434 112.447 46.433 112.447 46.432C112.447 46.431 112.447 46.43 112.447 46.429C112.447 46.428 112.447 46.427 112.447 46.426C112.447 46.425 112.447 46.424 112.447 46.423C112.447 46.422 112.447 46.421 112.447 46.42C112.447 46.419 112.447 46.418 112.447 46.417C112.447 46.416 112.447 46.415 112.447 46.414C112.447 46.413 112.447 46.412 112.447 46.411C112.447 46.41 112.447 46.409 112.447 46.408C112.447 46.407 112.447 46.406 112.447 46.405C112.447 46.404 112.447 46.403 112.447 46.402C112.447 46.401 112.447 46.4 112.447 46.399C112.447 46.398 112.447 46.397 112.447 46.396C112.447 46.395 112.447 46.394 112.447 46.393C112.447 46.392 112.447 46.391 112.447 46.39C112.447 46.389 112.447 46.388 112.447 46.387C112.447 46.386 112.447 46.385 112.447 46.384C112.447 46.383 112.447 46.382 112.447 46.381C112.447 46.38 112.447 46.379 112.447 46.378C112.447 46.377 112.447 46.376 112.447 46.375C112.447 46.374 112.447 46.373 112.447 46.372C112.447 46.371 112.447 46.37 112.447 46.369C112.447 46.368 112.447 46.367 112.447 46.366C112.447 46.365 112.447 46.364 112.447 46.363C112.447 46.362 112.447 46.361 112.447 46.36C112.447 46.359 112.447 46.358 112.447 46.357C112.447 46.356 112.447 46.355 112.447 46.354C112.447 46.353 112.447 46.352 112.447 46.351C112.447 46.35 112.447 46.349 112.447 46.348C112.447 46.347 112.447 46.346 112.447 46.345C112.447 46.344 112.447 46.343 112.447 46.342C112.447 46.341 112.447 46.34 112.447 46.339C112.447 46.338 112.447 46.337 112.447 46.336C112.447 46.335 112.447 46.334 112.447 46.333C112.447 46.332 112.447 46.331 112.447 46.33C112.447 46.329 112.447 46.328 112.447 46.327C112.447 46.326 112.447 46.325 112.447 46.324C112.447 46.323 112.447 46.322 112.447 46.321C112.447 46.32 112.447 46.319 112.447 46.318C112.447 46.317 112.447 46.316 112.447 46.315C112.447 46.314 112.447 46.313 112.447 46.312C112.447 46.311 112.447 46.31 112.447 46.309C112.447 46.308 112.447 46.307 112.447 46.306C112.447 46.305 112.447 46.304 112.447 46.303C112.447 46.302 112.447 46.301 112.447 46.3C112.447 46.299 112.447 46.298 112.447 46.297C112.447 46.296 112.447 46.295 112.447 46.294C112.447 46.293 112.447 46.292 112.447 46.291C112.447 46.29 112.447 46.289 112.447 46.288C112.447 46.287 112.447 46.286 112.447 46.285C112.447 46.284 112.447 46.283 112.447 46.282C112.447 46.281 112.447 46.28 112.447 46.279C112.447 46.278 112.447 46.277 112.447 46.276C112.447 46.275 112.447 46.274 112.447 46.273C112.447 46.272 112.447 46.271 112.447 46.27C112.447 46.269 112.447 46.268 112.447 46.267C112.447 46.266 112.447 46.265 112.447 46.264C112.447 46.263 112.447 46.262 112.447 46.261C112.447 46.26 112.447 46.259 112.447 46.258C112.447 46.257 112.447 46.256 112.447 46.255C112.447 46.254 112.447 46.253 112.447 46.252C112.447 46.251 112.447 46.25 112.447 46.249C112.447 46.248 112.447 46.247 112.447 46.246C112.447 46.245 112.447 46.244 112.447 46.243C112.447 46.242 112.447 46.241 112.447 46.24C112.447 46.239 112.447 46.238 112.447 46.237C112.447 46.236 112.447 46.235 112.447 46.234C112.447 46.233 112.447 46.232 112.447 46.231C112.447 46.23 112.447 46.229 112.447 46.228C112.447 46.227 112.447 46.226 112.447 46.225C112.447 46.224 112.447 46.223 112.447 46.222C112.447 46.221 112.447 46.22 112.447 46.219C112.447 46.218 112.447 46.217 112.447 46.216C112.447 46.215 112.447 46.214 112.447 46.213C112.447 46.212 112.447 46.211 112.447 46.21C112.447 46.209 112.447 46.208 112.447 46.207C112.447 46.206 112.447 46.205 112.447 46.204C112.447 46.203 112.447 46.202 112.447 46.201C112.447 46.2 112.447 46.199 112.447 46.198C112.447 46.197 112.447 46.196 112.447 46.195C112.447 46.194 112.447 46.193 112.447 46.192C112.447 46.191 112.447 46.19 112.447 46.189C112.447 46.188 112.447 46.187 112.447 46.186C112.447 46.185 112.447 46.184 112.447 46.183C112.447 46.182 112.447 46.181 112.447 46.18C112.447 46.179 112.447 46.178 112.447 46.177C112.447 46.176 112.447 46.175 112.447 46.174C112.447 46.173 112.447 46.172 112.447 46.171C112.447 46.17 112.447 46.169 112.447 46.168C112.447 46.167 112.447 46.166 112.447 46.165C112.447 46.164 112.447 46.163 112.447 46.162C112.447 46.161 112.447 46.16 112.447 46.159C112.447 46.158 112.447 46.157 112.447 46.156C112.447 46.155 112.447 46.154 112.447 46.153C112.447 46.152 112.447 46.151 112.447 46.15C112.447 46.149 112.447 46.148 112.447 46.147C112.447 46.146 112.447 46.145 112.447 46.144C112.447 46.143 112.447 46.142 112.447 46.141C112.447 46.14 112.447 46.139 112.447 46.138C112.447 46.137 112.447 46.136 112.447 46.135C112.447 46.134 112.447 46.133 112.447 46.132C112.447 46.131 112.447 46.13 112.447 46.129C112.447 46.128 112.447 46.127 112.447 46.126C112.447 46.125 112.447 46.124 112.447 46.123C112.447 46.122 112.447 46.121 112.447 46.12C112.447 46.119 112.447 46.118 112.447 46.117C112.447 46.116 112.447 46.115 112.447 46.114C112.447 46.113 112.447 46.112 112.447 46.111C112.447 46.11 112.447 46.109 112.447 46.108C112.447 46.107 112.447 46.106 112.447 46.105C112.447 46.104 112.447 46.103 112.447 46.102C112.447 46.101 112.447 46.1 112.447 46.099C112.447 46.098 112.447 46.097 112.447 46.096C112.447 46.095 112.447 46.094 112.447 46.093C112.447 46.092 112.447 46.091 112.447 46.09C112.447 46.089 112.447 46.088 112.447 46.087C112.447 46.086 112.447 46.085 112.447 46.084C112.447 46.083 112.447 46.082 112.447 46.081C112.447 46.08 112.447 46.079 112.447 46.078C112.447 46.077 112.447 46.076 112.447 46.075C112.447 46.074 112.447 46.073 112.447 46.072C112.447 46.071 112.447 46.07 112.447 46.069C112.447 46.068 112.447 46.067 112.447 46.066C112.447 46.065 112.447 46.064 112.447 46.063C112.447 46.062 112.447 46.061 112.447 46.06C112.447 46.059 112.447 46.058 112.447 46.057C112.447 46.056 112.447 46.055 112.447 46.054C112.447 46.053 112.447 46.052 112.447 46.051C112.447 46.05 112.447 46.049 112.447 46.048C112.447 46.047 112.447 46.046 112.447 46.045C112.447 46.044 112.447 46.043 112.447 46.042C112.447 46.041 112.447 46.04 112.447 46.039C112.447 46.038 112.447 46.037 112.447 46.036C112.447 46.035 112.447 46.034 112.447 46.033C112.447 46.032 112.447 46.031 112.447 46.03C112.447 46.029 112.447 46.028 112.447 46.027C112.447 46.026 112.447 46.025 112.447 46.024C112.447 46.023 112.447 46.022 112.447 46.021C112.447 46.02 112.447 46.019 112.447 46.018C112.447 46.017 112.447 46.016 112.447 46.015C112.447 46.014 112.447 46.013 112.447 46.012C112.447 46.011 112.447 46.01 112.447 46.009C112.447 46.008 112.447 46.007 112.447 46.006C112.447 46.005 112.447 46.004 112.447 46.003C112.447 46.002 112.447 46.001 112.447 46C112.447 45.999 112.447 45.998 112.447 45.997C112.447 45.996 112.447 45.995 112.447 45.994C112.447 45.993 112.447 45.992 112.447 45.991C112.447 45.99 112.447 45.989 112.447 45.988C112.447 45.987 112.447 45.986 112.447 45.985C112.447 45.984 112.447 45.983 112.447 45.982C112.447 45.981 112.447 45.98 112.447 45.979C112.447 45.978 112.447 45.977 112.447 45.976C112.447 45.975 112.447 45.974 112.447 45.973C112.447 45.972 112.447 45.971 112.447 45.97C112.447 45.969 112.447 45.968 112.447 45.967C112.447 45.966 112.447 45.965 112.447 45.964C112.447 45.963 112.447 45.962 112.447 45.961C112.447 45.96 112.447 45.959 112.447 45.958C112.447 45.957 112.447 45.956 112.447 45.955C112.447 45.954 112.447 45.953 112.447 45.952C112.447 45.951 112.447 45.95 112.447 45.949C112.447 45.948 112.447 45.947 112.447 45.946C112.447 45.945 112.447 45.944 112.447 45.943C112.447 45.942 112.447 45.941 112.447 45.94C112.447 45.939 112.447 45.938 112.447 45.937C112.447 45.936 112.447 45.935 112.447 45.934C112.447 45.933 112.447 45.932 112.447 45.931C112.447 45.93 112.447 45.929 112.447 45.928C112.447 45.927 112.447 45.926 112.447 45.925C112.447 45.924 112.447 45.923 112.447 45.922C112.447 45.921 112.447 45.92 112.447 45.919C112.447 45.918 112.447 45.917 112.447 45.916C112.447 45.915 112.447 45.914 112.447 45.913C112.447 45.912 112.447 45.911 112.447 45.91C112.447 45.909 112.447 45.908 112.447 45.907C112.447 45.906 112.447 45.905 112.447 45.904C112.447 45.903 112.447 45.902 112.447 45.901C112.447 45.9 112.447 45.899 112.447 45.898C112.447 45.897 112.447 45.896 112.447 45.895C112.447 45.894 112.447 45.893 112.447 45.892C112.447 45.891 112.447 45.89 112.447 45.889C112.447 45.888 112.447 45.887 112.447 45.886C112.447 45.885 112.447 45.884 112.447 45.883C112.447 45.882 112.447 45.881 112.447 45.88C112.447 45.879 112.447 45.878 112.447 45.877C112.447 45.876 112.447 45.875 112.447 45.874C112.447 45.873 112.447 45.872 112.447 45.871C112.447 45.87 112.447 45.869 112.447 45.868C112.447 45.867 112.447 45.866 112.447 45.865C112.447 45.864 112.447 45.863 112.447 45.862C112.447 45.861 112.447 45.86 112.447 45.859C112.447 45.858 112.447 45.857 112.447 45.856C112.447 45.855 112.447 45.854 112.447 45.853C112.447 45.852 112.447 45.851 112.447 45.85C112.447 45.849 112.447 45.848 112.447 45.847C112.447 45.846 112.447 45.845 112.447 45.844C112.447 45.843 112.447 45.842 112.447 45.841C112.447 45.84 112.447 45.839 112.447 45.838C112.447 45.837 112.447 45.836 112.447 45.835C112.447 45.834 112.447 45.833 112.447 45.832H111.447ZM111.447 47.368H110.447C110.447 47.7825 110.416 48.0409 110.381 48.1815L111.351 48.424L112.321 48.6665C112.414 48.2951 112.447 47.8495 112.447 47.368H111.447ZM111.351 48.424V47.424H68.5349V48.424V49.424H111.351V48.424ZM68.5349 48.424L67.5389 48.5129C67.8708 52.2302 68.903 55.5762 70.65 58.5327L71.5109 58.024L72.3719 57.5153C70.7909 54.8398 69.8391 51.7859 69.531 48.3351L68.5349 48.424ZM71.5109 58.024L70.6641 58.5558C72.4709 61.4333 74.7872 63.7517 77.6086 65.4983L78.1349 64.648L78.6613 63.7978C76.1067 62.2164 74.007 60.1187 72.3578 57.4922L71.5109 58.024ZM78.1349 64.648L77.6323 65.5125C80.5378 67.2018 83.6874 68.048 87.0629 68.048V67.048V66.048C84.0385 66.048 81.2361 65.2943 78.6376 63.7835L78.1349 64.648ZM87.0629 67.048V68.048C90.5061 68.048 93.7502 67.168 96.7792 65.4179L96.2789 64.552L95.7787 63.6861C93.0477 65.264 90.1478 66.048 87.0629 66.048V67.048ZM96.2789 64.552L96.771 65.4226C99.8746 63.6683 102.091 61.3378 103.342 58.4179L102.423 58.024L101.504 57.6301C100.451 60.0862 98.5712 62.1077 95.7869 63.6815L96.2789 64.552ZM102.423 58.024L102.161 58.9892L107.825 60.5252L108.087 59.56L108.349 58.5949L102.685 57.0589L102.423 58.024ZM108.087 59.56L107.169 59.1631C106.207 61.3874 104.728 63.4174 102.71 65.2521L103.383 65.992L104.056 66.732C106.262 64.7266 107.919 62.4687 109.005 59.9569L108.087 59.56ZM103.383 65.992L102.71 65.2521C100.699 67.0809 98.3131 68.5215 95.5415 69.5685L95.8949 70.504L96.2484 71.4395C99.2368 70.3105 101.843 68.7431 104.056 66.732L103.383 65.992ZM95.8949 70.504L95.5532 69.5642C92.8561 70.545 89.9328 71.04 86.7749 71.04V72.04V73.04C90.1451 73.04 93.3018 72.511 96.2367 71.4438L95.8949 70.504ZM68.3429 43.72V44.72H105.303V43.72V42.72H68.3429V43.72ZM105.303 43.72L106.3 43.65C106.034 39.8589 105 36.4961 103.174 33.5882L102.327 34.12L101.48 34.6518C103.11 37.2479 104.059 40.2851 104.305 43.79L105.303 43.72ZM102.327 34.12L103.183 33.6026C101.431 30.7052 99.0971 28.4372 96.1903 26.8148L95.7029 27.688L95.2156 28.5612C97.8128 30.0108 99.8951 32.0308 101.471 34.6374L102.327 34.12ZM95.7029 27.688L96.2144 26.8287C93.3648 25.1325 90.2108 24.288 86.7749 24.288V25.288V26.288C89.8671 26.288 92.6651 27.0435 95.1915 28.5473L95.7029 27.688ZM86.7749 25.288V24.288C83.3391 24.288 80.1851 25.1325 77.3355 26.8287L77.8469 27.688L78.3584 28.5473C80.8848 27.0435 83.6828 26.288 86.7749 26.288V25.288ZM77.8469 27.688L77.3508 26.8198C74.5072 28.4447 72.1804 30.7438 70.3706 33.693L71.2229 34.216L72.0753 34.739C73.7215 32.0563 75.8107 30.0033 78.3431 28.5563L77.8469 27.688ZM71.2229 34.216L70.3672 33.6986C68.6121 36.6012 67.6114 39.9257 67.3455 43.6488L68.3429 43.72L69.3404 43.7913C69.5865 40.3464 70.5058 37.3348 72.0787 34.7334L71.2229 34.216ZM121.807 1.00002V1.52588e-05H120.807V1.00002H121.807ZM128.335 1.00002H129.335V1.52588e-05H128.335V1.00002ZM129.679 64.648L129.028 65.4073V65.4073L129.679 64.648ZM136.399 65.416L136.182 64.4398V64.4398L136.399 65.416ZM139.375 64.648L140.352 64.4349L140.12 63.3725L139.081 63.6922L139.375 64.648ZM140.527 69.928L140.915 70.8497L141.681 70.5271L141.504 69.7149L140.527 69.928ZM136.015 71.176L135.839 70.1916L135.833 70.1927L136.015 71.176ZM124.399 69.064L123.692 69.7711L123.698 69.7775L123.705 69.7839L124.399 69.064ZM121.807 1.00002V2.00002H128.335V1.00002V1.52588e-05H121.807V1.00002ZM128.335 1.00002H127.335V59.752H128.335H129.335V1.00002H128.335ZM128.335 59.752H127.335C127.335 61.0513 127.45 62.1802 127.706 63.1127C127.961 64.0413 128.376 64.8483 129.028 65.4073L129.679 64.648L130.329 63.8888C130.086 63.6797 129.828 63.2867 129.635 62.5833C129.443 61.8839 129.335 60.9487 129.335 59.752H128.335ZM129.679 64.648L129.028 65.4073C130.121 66.3442 131.446 66.8 132.943 66.8V65.8V64.8C131.88 64.8 131.028 64.4878 130.329 63.8888L129.679 64.648ZM132.943 65.8V66.8C134.169 66.8 135.394 66.6636 136.616 66.3922L136.399 65.416L136.182 64.4398C135.099 64.6804 134.02 64.8 132.943 64.8V65.8ZM136.399 65.416L136.616 66.3922C137.785 66.1323 138.804 65.8698 139.669 65.6038L139.375 64.648L139.081 63.6922C138.281 63.9382 137.316 64.1877 136.182 64.4398L136.399 65.416ZM139.375 64.648L138.398 64.8612L139.55 70.1412L140.527 69.928L141.504 69.7149L140.352 64.4349L139.375 64.648ZM140.527 69.928L140.139 69.0064C139.011 69.4811 137.583 69.8801 135.839 70.1916L136.015 71.176L136.19 72.1604C138.03 71.832 139.61 71.3989 140.915 70.8497L140.527 69.928ZM136.015 71.176L135.833 70.1927C134.144 70.5054 132.704 70.656 131.503 70.656V71.656V72.656C132.862 72.656 134.429 72.4866 136.197 72.1593L136.015 71.176ZM131.503 71.656V70.656C128.767 70.656 126.665 69.8602 125.093 68.3442L124.399 69.064L123.705 69.7839C125.716 71.7239 128.35 72.656 131.503 72.656V71.656ZM124.399 69.064L125.106 68.3569C123.607 66.8579 122.807 64.7678 122.807 61.96H121.807H120.807C120.807 65.1682 121.735 67.8141 123.692 69.7711L124.399 69.064ZM121.807 61.96H122.807V1.00002H121.807H120.807V61.96H121.807ZM147.963 1.00002V1.52588e-05H146.963V1.00002H147.963ZM154.491 1.00002H155.491V1.52588e-05H154.491V1.00002ZM155.835 64.648L155.184 65.4073V65.4073L155.835 64.648ZM162.555 65.416L162.338 64.4398V64.4398L162.555 65.416ZM165.531 64.648L166.508 64.4349L166.276 63.3725L165.237 63.6922L165.531 64.648ZM166.683 69.928L167.071 70.8497L167.837 70.5271L167.66 69.7149L166.683 69.928ZM162.171 71.176L161.995 70.1916L161.989 70.1927L162.171 71.176ZM150.555 69.064L149.848 69.7711L149.854 69.7775L149.861 69.7839L150.555 69.064ZM147.963 1.00002V2.00002H154.491V1.00002V1.52588e-05H147.963V1.00002ZM154.491 1.00002H153.491V59.752H154.491H155.491V1.00002H154.491ZM154.491 59.752H153.491C153.491 61.0513 153.607 62.1802 153.863 63.1127C154.118 64.0413 154.532 64.8483 155.184 65.4073L155.835 64.648L156.486 63.8888C156.242 63.6797 155.984 63.2867 155.791 62.5833C155.599 61.8839 155.491 60.9487 155.491 59.752H154.491ZM155.835 64.648L155.184 65.4073C156.277 66.3442 157.602 66.8 159.099 66.8V65.8V64.8C158.036 64.8 157.185 64.4878 156.486 63.8888L155.835 64.648ZM159.099 65.8V66.8C160.326 66.8 161.55 66.6636 162.772 66.3922L162.555 65.416L162.338 64.4398C161.255 64.6804 160.176 64.8 159.099 64.8V65.8ZM162.555 65.416L162.772 66.3922C163.941 66.1323 164.96 65.8698 165.825 65.6038L165.531 64.648L165.237 63.6922C164.437 63.9382 163.472 64.1877 162.338 64.4398L162.555 65.416ZM165.531 64.648L164.554 64.8612L165.706 70.1412L166.683 69.928L167.66 69.7149L166.508 64.4349L165.531 64.648ZM166.683 69.928L166.295 69.0064C165.167 69.4811 163.74 69.8801 161.995 70.1916L162.171 71.176L162.347 72.1604C164.186 71.832 165.767 71.3989 167.071 70.8497L166.683 69.928ZM162.171 71.176L161.989 70.1927C160.3 70.5054 158.86 70.656 157.659 70.656V71.656V72.656C159.018 72.656 160.585 72.4866 162.353 72.1593L162.171 71.176ZM157.659 71.656V70.656C154.923 70.656 152.821 69.8602 151.249 68.3442L150.555 69.064L149.861 69.7839C151.873 71.7239 154.507 72.656 157.659 72.656V71.656ZM150.555 69.064L151.262 68.3569C149.763 66.8579 148.963 64.7678 148.963 61.96H147.963H146.963C146.963 65.1682 147.891 67.8141 149.848 69.7711L150.555 69.064ZM147.963 61.96H148.963V1.00002H147.963H146.963V61.96H147.963ZM185.159 70.024L184.735 70.9297L184.747 70.9351L184.758 70.9402L185.159 70.024ZM177.287 64.36L176.542 65.0268L176.551 65.0371L176.561 65.0472L177.287 64.36ZM172.199 56.104L171.267 56.4656L171.269 56.4721L172.199 56.104ZM172.199 36.232L173.129 36.6001L173.132 36.5935L172.199 36.232ZM177.383 27.976L178.11 28.6633L178.119 28.6535L177.383 27.976ZM185.255 22.312L185.663 23.2251L185.672 23.2211L185.255 22.312ZM205.127 22.312L204.703 23.2177L204.711 23.2214L204.719 23.225L205.127 22.312ZM212.999 27.976L212.264 28.6535L212.273 28.6632L212.999 27.976ZM218.183 36.232L217.251 36.5936L217.253 36.6001L218.183 36.232ZM218.183 56.104L219.113 56.4721L219.116 56.4655L218.183 56.104ZM212.999 64.36L212.264 63.6825L212.263 63.6834L212.999 64.36ZM205.127 70.024L205.535 70.9371L205.544 70.9331L205.127 70.024ZM179.399 56.488L178.512 56.95L178.518 56.9611L178.524 56.9721L179.399 56.488ZM186.023 63.688L185.478 64.526L185.484 64.5305L185.491 64.5349L186.023 63.688ZM204.263 63.592L204.809 64.43V64.43L204.263 63.592ZM210.887 56.296L211.767 56.7723L211.771 56.7647L210.887 56.296ZM186.023 28.744L185.464 27.9149L185.455 27.9211L186.023 28.744ZM179.495 36.136L180.37 36.6201L180.374 36.6123L179.495 36.136ZM195.143 72.04V71.04C191.688 71.04 188.497 70.3928 185.56 69.1079L185.159 70.024L184.758 70.9402C187.965 72.3432 191.431 73.04 195.143 73.04V72.04ZM185.159 70.024L185.583 69.1183C182.687 67.7625 180.166 65.9479 178.014 63.6728L177.287 64.36L176.561 65.0472C178.889 67.5081 181.616 69.4695 184.735 70.9297L185.159 70.024ZM177.287 64.36L178.032 63.6932C175.936 61.3502 174.302 58.6997 173.129 55.736L172.199 56.104L171.269 56.4721C172.528 59.6524 174.286 62.5058 176.542 65.0268L177.287 64.36ZM172.199 56.104L173.132 55.7425C171.962 52.725 171.375 49.5518 171.375 46.216H170.375H169.375C169.375 49.7922 170.005 53.2111 171.267 56.4655L172.199 56.104ZM170.375 46.216H171.375C171.375 42.7473 171.963 39.5453 173.129 36.6001L172.199 36.232L171.269 35.864C170.003 39.0627 169.375 42.5167 169.375 46.216H170.375ZM172.199 36.232L173.132 36.5935C174.302 33.5745 175.962 30.934 178.11 28.6632L177.383 27.976L176.657 27.2888C174.325 29.754 172.528 32.6175 171.267 35.8705L172.199 36.232ZM177.383 27.976L178.119 28.6535C180.267 26.3211 182.78 24.5134 185.663 23.225L185.255 22.312L184.847 21.399C181.715 22.7986 178.979 24.767 176.648 27.2985L177.383 27.976ZM185.255 22.312L185.672 23.2211C188.605 21.8766 191.79 21.2 195.239 21.2V20.2V19.2C191.52 19.2 188.049 19.9314 184.839 21.403L185.255 22.312ZM195.239 20.2V21.2C198.688 21.2 201.838 21.8766 204.703 23.2177L205.127 22.312L205.551 21.4063C202.4 19.9314 198.958 19.2 195.239 19.2V20.2ZM205.127 22.312L204.719 23.225C207.603 24.5134 210.115 26.3211 212.264 28.6535L212.999 27.976L213.735 27.2985C211.403 24.767 208.668 22.7986 205.535 21.399L205.127 22.312ZM212.999 27.976L212.273 28.6632C214.421 30.934 216.08 33.5745 217.251 36.5935L218.183 36.232L219.116 35.8705C217.854 32.6175 216.058 29.754 213.726 27.2888L212.999 27.976ZM218.183 36.232L217.253 36.6001C218.419 39.5453 219.007 42.7473 219.007 46.216H220.007H221.007C221.007 42.5167 220.379 39.0627 219.113 35.864L218.183 36.232ZM220.007 46.216H219.007C219.007 49.5518 218.421 52.725 217.251 55.7425L218.183 56.104L219.116 56.4655C220.378 53.2111 221.007 49.7922 221.007 46.216H220.007ZM218.183 56.104L217.253 55.736C216.083 58.6937 214.421 61.3408 212.264 63.6825L212.999 64.36L213.735 65.0375C216.058 62.5152 217.852 59.6583 219.113 56.4721L218.183 56.104ZM212.999 64.36L212.263 63.6834C210.181 65.9485 207.668 67.7595 204.711 69.115L205.127 70.024L205.544 70.9331C208.731 69.4725 211.465 67.5076 213.736 65.0366L212.999 64.36ZM205.127 70.024L204.719 69.111C201.853 70.3918 198.666 71.04 195.143 71.04V72.04V73.04C198.917 73.04 202.386 72.3443 205.535 70.937L205.127 70.024ZM176.999 46.312H175.999C175.999 50.173 176.833 53.7252 178.512 56.95L179.399 56.488L180.286 56.0261C178.766 53.1069 177.999 49.875 177.999 46.312H176.999ZM179.399 56.488L178.524 56.9721C180.264 60.1163 182.582 62.6405 185.478 64.526L186.023 63.688L186.569 62.85C183.96 61.1515 181.863 58.8757 180.274 56.004L179.399 56.488ZM186.023 63.688L185.491 64.5349C188.407 66.3655 191.632 67.28 195.143 67.28V66.28V65.28C191.999 65.28 189.144 64.4666 186.555 62.8411L186.023 63.688ZM195.143 66.28V67.28C198.662 67.28 201.892 66.3292 204.809 64.43L204.263 63.592L203.718 62.754C201.13 64.4388 198.28 65.28 195.143 65.28V66.28ZM204.263 63.592L204.809 64.43C207.709 62.5413 210.028 59.9811 211.766 56.7723L210.887 56.296L210.008 55.8197C208.418 58.7549 206.321 61.0587 203.718 62.754L204.263 63.592ZM210.887 56.296L211.771 56.7647C213.513 53.4803 214.383 49.9268 214.383 46.12H213.383H212.383C212.383 49.6093 211.589 52.8397 210.004 55.8273L210.887 56.296ZM213.383 46.12H214.383C214.383 42.2524 213.515 38.6951 211.766 35.4677L210.887 35.944L210.008 36.4203C211.588 39.3369 212.383 42.5636 212.383 46.12H213.383ZM210.887 35.944L211.766 35.4677C210.028 32.2589 207.709 29.6987 204.809 27.81L204.263 28.648L203.718 29.486C206.321 31.1813 208.418 33.4851 210.008 36.4203L210.887 35.944ZM204.263 28.648L204.809 27.81C201.892 25.9108 198.662 24.96 195.143 24.96V25.96V26.96C198.28 26.96 201.13 27.8012 203.718 29.486L204.263 28.648ZM195.143 25.96V24.96C191.617 24.96 188.382 25.9472 185.464 27.9149L186.023 28.744L186.582 29.5731C189.169 27.8288 192.014 26.96 195.143 26.96V25.96ZM186.023 28.744L185.455 27.9211C182.629 29.8727 180.35 32.4592 178.616 35.6597L179.495 36.136L180.374 36.6123C181.969 33.6688 184.042 31.3273 186.591 29.5669L186.023 28.744ZM179.495 36.136L178.62 35.652C176.866 38.8224 175.999 42.3838 175.999 46.312H176.999H177.999C177.999 42.6883 178.796 39.4657 180.37 36.6201L179.495 36.136ZM292.213 21.064V20.064H291.548L291.291 20.6775L292.213 21.064ZM298.645 21.064L299.564 21.459L300.164 20.064H298.645V21.064ZM277.141 71.08V72.08H277.8L278.06 71.475L277.141 71.08ZM271.477 71.08L270.556 71.4679L270.813 72.08H271.477V71.08ZM261.013 46.216L261.935 45.8281L261.009 43.6279L260.09 45.8311L261.013 46.216ZM250.645 71.08V72.08H251.312L251.568 71.4649L250.645 71.08ZM244.981 71.08L244.063 71.475L244.323 72.08H244.981V71.08ZM223.477 21.064V20.064H221.959L222.559 21.459L223.477 21.064ZM229.813 21.064L230.735 20.6758L230.477 20.064H229.813V21.064ZM248.053 64.36L247.132 64.7483L248.068 66.9695L248.979 64.7382L248.053 64.36ZM257.269 41.8L258.195 42.1782L258.35 41.7997L258.195 41.4212L257.269 41.8ZM248.821 21.16V20.16H247.332L247.896 21.5388L248.821 21.16ZM254.677 21.16L255.609 20.7962L255.36 20.16H254.677V21.16ZM261.013 37.384L260.082 37.7478L261.006 40.115L261.943 37.7526L261.013 37.384ZM267.445 21.16V20.16H266.766L266.516 20.7915L267.445 21.16ZM273.205 21.16L274.132 21.5351L274.689 20.16H273.205V21.16ZM264.853 41.8L263.926 41.4249L263.774 41.8018L263.928 42.1782L264.853 41.8ZM274.069 64.36L273.144 64.7382L274.058 66.9755L274.992 64.7465L274.069 64.36ZM292.213 21.064V22.064H298.645V21.064V20.064H292.213V21.064ZM298.645 21.064L297.727 20.669L276.223 70.685L277.141 71.08L278.06 71.475L299.564 21.459L298.645 21.064ZM277.141 71.08V70.08H271.477V71.08V72.08H277.141V71.08ZM271.477 71.08L272.399 70.6921L261.935 45.8281L261.013 46.216L260.092 46.6039L270.556 71.4679L271.477 71.08ZM261.013 46.216L260.09 45.8311L249.722 70.6952L250.645 71.08L251.568 71.4649L261.936 46.6009L261.013 46.216ZM250.645 71.08V70.08H244.981V71.08V72.08H250.645V71.08ZM244.981 71.08L245.9 70.685L224.396 20.669L223.477 21.064L222.559 21.459L244.063 71.475L244.981 71.08ZM223.477 21.064V22.064H229.813V21.064V20.064H223.477V21.064ZM229.813 21.064L228.892 21.4523L247.132 64.7483L248.053 64.36L248.975 63.9718L230.735 20.6758L229.813 21.064ZM248.053 64.36L248.979 64.7382L258.195 42.1782L257.269 41.8L256.344 41.4218L247.128 63.9818L248.053 64.36ZM257.269 41.8L258.195 41.4212L249.747 20.7812L248.821 21.16L247.896 21.5388L256.344 42.1788L257.269 41.8ZM248.821 21.16V22.16H254.677V21.16V20.16H248.821V21.16ZM254.677 21.16L253.746 21.5238L260.082 37.7478L261.013 37.384L261.945 37.0202L255.609 20.7962L254.677 21.16ZM261.013 37.384L261.943 37.7526L268.375 21.5286L267.445 21.16L266.516 20.7915L260.084 37.0155L261.013 37.384ZM267.445 21.16V22.16H273.205V21.16V20.16H267.445V21.16ZM273.205 21.16L272.278 20.7849L263.926 41.4249L264.853 41.8L265.78 42.1751L274.132 21.5351L273.205 21.16ZM264.853 41.8L263.928 42.1782L273.144 64.7382L274.069 64.36L274.995 63.9818L265.779 41.4218L264.853 41.8ZM274.069 64.36L274.992 64.7465L293.136 21.4505L292.213 21.064L291.291 20.6775L273.147 63.9735L274.069 64.36ZM379.097 62.632L379.932 63.182L379.938 63.1728L379.097 62.632ZM372.089 68.872L372.544 69.7625L372.552 69.7586L372.089 68.872ZM330.425 71.08H329.425V72.08H330.425V71.08ZM330.425 2.92001V1.92001H329.425V2.92001H330.425ZM371.513 5.51202L370.913 6.31201L370.926 6.3213L370.938 6.33021L371.513 5.51202ZM376.889 12.04L375.978 12.4522L375.984 12.4654L375.99 12.4784L376.889 12.04ZM376.217 29.704L375.36 29.1895V29.1895L376.217 29.704ZM369.017 36.136L368.601 35.227L366.173 36.3395L368.734 37.0951L369.017 36.136ZM378.233 42.568L377.419 43.1493L377.427 43.1601L378.233 42.568ZM373.433 46.024L372.544 46.4827L372.551 46.4946L373.433 46.024ZM369.209 41.224L368.634 42.0418L368.641 42.0467L368.648 42.0515L369.209 41.224ZM337.145 39.4V38.4H336.145V39.4H337.145ZM337.145 65.224H336.145V66.224H337.145V65.224ZM368.825 63.4L369.373 64.2365V64.2365L368.825 63.4ZM373.241 58.696L372.376 58.1939L372.371 58.203L373.241 58.696ZM337.145 8.77601V7.77601H336.145V8.77601H337.145ZM337.145 33.928H336.145V34.928H337.145V33.928ZM366.521 32.2L367.076 33.0321L367.086 33.0251L367.097 33.0178L366.521 32.2ZM370.649 27.496L369.767 27.0254V27.0254L370.649 27.496ZM370.745 15.112L369.851 15.5593L369.857 15.5714L370.745 15.112ZM381.689 53.512H380.689C380.689 56.7246 379.874 59.5746 378.256 62.0913L379.097 62.632L379.938 63.1728C381.777 60.3134 382.689 57.0834 382.689 53.512H381.689ZM379.097 62.632L378.262 62.082C376.633 64.5558 374.429 66.5235 371.627 67.9854L372.089 68.872L372.552 69.7586C375.638 68.1486 378.105 65.9562 379.932 63.182L379.097 62.632ZM372.089 68.872L371.634 67.9816C368.905 69.3767 365.894 70.08 362.585 70.08V71.08V72.08C366.188 72.08 369.514 71.3114 372.544 69.7625L372.089 68.872ZM362.585 71.08V70.08H330.425V71.08V72.08H362.585V71.08ZM330.425 71.08H331.425V2.92001H330.425H329.425V71.08H330.425ZM330.425 2.92001V3.92001H363.257V2.92001V1.92001H330.425V2.92001ZM363.257 2.92001V3.92001C366.266 3.92001 368.801 4.72824 370.913 6.31201L371.513 5.51202L372.113 4.71201C369.617 2.83979 366.648 1.92001 363.257 1.92001V2.92001ZM371.513 5.51202L370.938 6.33021C373.157 7.88929 374.834 9.92384 375.978 12.4522L376.889 12.04L377.8 11.6278C376.512 8.78019 374.605 6.46274 372.088 4.69382L371.513 5.51202ZM376.889 12.04L375.99 12.4784C377.205 14.9678 377.809 17.5701 377.809 20.296H378.809H379.809C379.809 17.2619 379.134 14.3602 377.788 11.6016L376.889 12.04ZM378.809 20.296H377.809C377.809 23.5087 376.993 26.4666 375.36 29.1895L376.217 29.704L377.075 30.2185C378.897 27.1815 379.809 23.8674 379.809 20.296H378.809ZM376.217 29.704L375.36 29.1895C373.736 31.8954 371.49 33.9024 368.601 35.227L369.017 36.136L369.434 37.0451C372.688 35.5536 375.242 33.2726 377.075 30.2185L376.217 29.704ZM369.017 36.136L368.734 37.0951C372.437 38.1878 375.317 40.2056 377.419 43.1493L378.233 42.568L379.047 41.9868C376.67 38.6585 373.405 36.3883 369.3 35.1769L369.017 36.136ZM378.233 42.568L377.427 43.1601C379.596 46.1123 380.689 49.5494 380.689 53.512H381.689H382.689C382.689 49.1546 381.478 45.2957 379.039 41.9759L378.233 42.568ZM374.969 52.36H375.969C375.969 49.9018 375.421 47.6268 374.316 45.5534L373.433 46.024L372.551 46.4946C373.493 48.2612 373.969 50.2102 373.969 52.36H374.969ZM373.433 46.024L374.322 45.5654C373.224 43.4378 371.705 41.7092 369.771 40.3965L369.209 41.224L368.648 42.0515C370.297 43.1708 371.595 44.6422 372.545 46.4827L373.433 46.024ZM369.209 41.224L369.785 40.4062C367.878 39.0643 365.69 38.4 363.257 38.4V39.4V40.4C365.304 40.4 367.085 40.9517 368.634 42.0418L369.209 41.224ZM363.257 39.4V38.4H337.145V39.4V40.4H363.257V39.4ZM337.145 39.4H336.145V65.224H337.145H338.145V39.4H337.145ZM337.145 65.224V66.224H362.585V65.224V64.224H337.145V65.224ZM362.585 65.224V66.224C365.076 66.224 367.348 65.5634 369.373 64.2365L368.825 63.4L368.277 62.5636C366.591 63.6686 364.702 64.224 362.585 64.224V65.224ZM368.825 63.4L369.373 64.2365C371.362 62.9337 372.944 61.2483 374.111 59.189L373.241 58.696L372.371 58.203C371.362 59.9837 370.001 61.4343 368.277 62.5636L368.825 63.4ZM373.241 58.696L374.106 59.1982C375.344 57.0655 375.969 54.7808 375.969 52.36H374.969H373.969C373.969 54.4192 373.442 56.3585 372.376 58.1939L373.241 58.696ZM337.145 8.77601H336.145V33.928H337.145H338.145V8.77601H337.145ZM337.145 33.928V34.928H360.569V33.928V32.928H337.145V33.928ZM360.569 33.928V34.928C362.99 34.928 365.171 34.3023 367.076 33.0321L366.521 32.2L365.966 31.368C364.416 32.4018 362.628 32.928 360.569 32.928V33.928ZM366.521 32.2L367.097 33.0178C368.957 31.709 370.436 30.0205 371.532 27.9666L370.649 27.496L369.767 27.0254C368.814 28.8115 367.542 30.2591 365.946 31.3822L366.521 32.2ZM370.649 27.496L371.532 27.9666C372.633 25.9018 373.185 23.6922 373.185 21.352H372.185H371.185C371.185 23.3639 370.714 25.2503 369.767 27.0254L370.649 27.496ZM372.185 21.352H373.185C373.185 18.9048 372.674 16.6647 371.633 14.6526L370.745 15.112L369.857 15.5714C370.736 17.2713 371.185 19.1912 371.185 21.352H372.185ZM370.745 15.112L371.64 14.6648C370.609 12.6039 369.189 10.9353 367.378 9.68182L366.809 10.504L366.24 11.3262C367.757 12.3767 368.961 13.7801 369.851 15.5592L370.745 15.112ZM366.809 10.504L367.378 9.68182C365.54 8.4088 363.451 7.77601 361.145 7.77601V8.77601V9.77601C363.063 9.77601 364.751 10.2952 366.24 11.3262L366.809 10.504ZM361.145 8.77601V7.77601H337.145V8.77601V9.77601H361.145V8.77601ZM393.019 71.08H392.019V72.08H393.019V71.08ZM393.019 21.064V20.064H392.019V21.064H393.019ZM399.547 21.064H400.547V20.064H399.547V21.064ZM399.547 71.08V72.08H400.547V71.08H399.547ZM393.019 10.6H392.019V11.6H393.019V10.6ZM393.019 1.00002V1.52588e-05H392.019V1.00002H393.019ZM399.547 1.00002H400.547V1.52588e-05H399.547V1.00002ZM399.547 10.6V11.6H400.547V10.6H399.547ZM393.019 71.08H394.019V21.064H393.019H392.019V71.08H393.019ZM393.019 21.064V22.064H399.547V21.064V20.064H393.019V21.064ZM399.547 21.064H398.547V71.08H399.547H400.547V21.064H399.547ZM399.547 71.08V70.08H393.019V71.08V72.08H399.547V71.08ZM393.019 10.6H394.019V1.00002H393.019H392.019V10.6H393.019ZM393.019 1.00002V2.00002H399.547V1.00002V1.52588e-05H393.019V1.00002ZM399.547 1.00002H398.547V10.6H399.547H400.547V1.00002H399.547ZM399.547 10.6V9.60001H393.019V10.6V11.6H399.547V10.6ZM438.885 26.824L438.914 27.8236L439.885 27.795V26.824H438.885ZM427.365 30.472L426.796 29.6498L426.788 29.655L427.365 30.472ZM420.453 39.976L419.504 39.6598L419.453 39.8137V39.976H420.453ZM420.453 71.08V72.08H421.453V71.08H420.453ZM413.925 71.08H412.925V72.08H413.925V71.08ZM413.925 21.064V20.064H412.925V21.064H413.925ZM420.069 21.064H421.069V20.064H420.069V21.064ZM420.069 33.064H419.069L420.967 33.5047L420.069 33.064ZM426.885 24.52L426.282 23.7221L426.273 23.7287L426.885 24.52ZM436.005 20.872L436.085 21.8688L436.095 21.868L436.104 21.8671L436.005 20.872ZM438.885 20.872H439.885V20.0522L439.081 19.8914L438.885 20.872ZM438.885 26.824L438.856 25.8244C434.326 25.9577 430.295 27.2274 426.796 29.6498L427.365 30.472L427.934 31.2942C431.091 29.1087 434.74 27.9463 438.914 27.8236L438.885 26.824ZM427.365 30.472L426.788 29.655C423.339 32.0901 420.911 35.4392 419.504 39.6598L420.453 39.976L421.402 40.2922C422.683 36.4488 424.863 33.4619 427.942 31.289L427.365 30.472ZM420.453 39.976H419.453V71.08H420.453H421.453V39.976H420.453ZM420.453 71.08V70.08H413.925V71.08V72.08H420.453V71.08ZM413.925 71.08H414.925V21.064H413.925H412.925V71.08H413.925ZM413.925 21.064V22.064H420.069V21.064V20.064H413.925V21.064ZM420.069 21.064H419.069V33.064H420.069H421.069V21.064H420.069ZM420.069 33.064L420.967 33.5047C422.634 30.1077 424.813 27.3846 427.496 25.3113L426.885 24.52L426.273 23.7287C423.325 26.0074 420.96 28.9803 419.171 32.6233L420.069 33.064ZM426.885 24.52L427.488 25.3179C430.235 23.2419 433.097 22.1078 436.085 21.8688L436.005 20.872L435.925 19.8752C432.513 20.1482 429.295 21.4461 426.282 23.7221L426.885 24.52ZM436.005 20.872L436.104 21.8671C436.724 21.8051 437.233 21.776 437.637 21.776V20.776V19.776C437.145 19.776 436.566 19.811 435.905 19.877L436.005 20.872ZM437.637 20.776V21.776C438.116 21.776 438.459 21.8066 438.689 21.8526L438.885 20.872L439.081 19.8914C438.671 19.8094 438.182 19.776 437.637 19.776V20.776ZM438.885 20.872H437.885V26.824H438.885H439.885V20.872H438.885ZM445.695 33.256L444.801 32.8088L444.798 32.8147L445.695 33.256ZM453.855 23.752L453.29 22.9271V22.9271L453.855 23.752ZM476.799 23.56L476.233 24.3845L476.242 24.3909L476.252 24.397L476.799 23.56ZM484.575 31.528L483.714 32.0373L485.575 35.1811V31.528H484.575ZM484.575 1.00002V1.52588e-05H483.575V1.00002H484.575ZM491.103 1.00002H492.103V1.52588e-05H491.103V1.00002ZM491.679 65.224L490.92 65.8748L490.945 65.904L490.972 65.9311L491.679 65.224ZM493.407 65.896H494.407V64.9759L493.49 64.8995L493.407 65.896ZM493.407 71.08L493.555 72.069L494.407 71.9412V71.08H493.407ZM490.431 71.272L490.521 70.2761L490.5 70.2742L490.479 70.2731L490.431 71.272ZM486.879 69.64L486.172 70.3471V70.3471L486.879 69.64ZM485.343 61.384H486.343V57.8136L484.488 60.8646L485.343 61.384ZM477.279 69.16L476.786 68.2898V68.2898L477.279 69.16ZM457.119 69.928L456.68 70.8264L456.688 70.8302L457.119 69.928ZM449.535 64.168L448.78 64.8237L448.785 64.8293L448.79 64.8348L449.535 64.168ZM444.543 55.912L443.604 56.2568L443.609 56.2685L443.613 56.2801L444.543 55.912ZM484.575 53.896L485.563 54.0481L485.575 53.9725V53.896H484.575ZM484.575 38.44H485.575V38.265L485.516 38.1004L484.575 38.44ZM480.543 32.2L479.824 32.895L479.83 32.9011L479.836 32.9071L480.543 32.2ZM474.207 27.688L473.76 28.5824L473.774 28.5898L473.789 28.5967L474.207 27.688ZM459.999 27.688L460.446 28.5824L460.457 28.5772L460.467 28.5718L459.999 27.688ZM454.335 32.2L453.567 31.5598L453.56 31.5675L453.554 31.5753L454.335 32.2ZM450.783 38.728L451.729 39.0517V39.0517L450.783 38.728ZM450.879 53.896L449.941 54.2417L449.945 54.2525L449.949 54.2632L450.879 53.896ZM454.911 60.424L454.168 61.093L454.173 61.0993L454.179 61.1054L454.911 60.424ZM460.863 64.744L461.279 63.8345V63.8345L460.863 64.744ZM473.343 65.32L473.007 64.3783V64.3783L473.343 65.32ZM478.431 62.728L478.993 63.555L479 63.5502L478.431 62.728ZM482.559 58.696L483.375 59.274V59.274L482.559 58.696ZM442.815 46.216H443.815C443.815 41.6192 444.746 37.4522 446.592 33.6973L445.695 33.256L444.798 32.8147C442.804 36.8679 441.815 41.3408 441.815 46.216H442.815ZM445.695 33.256L446.589 33.7032C448.502 29.8778 451.112 26.8433 454.42 24.5769L453.855 23.752L453.29 22.9271C449.685 25.3967 446.856 28.6983 444.801 32.8088L445.695 33.256ZM453.855 23.752L454.42 24.5769C457.7 22.3293 461.437 21.2 465.663 21.2V20.2V19.2C461.057 19.2 456.921 20.4387 453.29 22.9271L453.855 23.752ZM465.663 20.2V21.2C469.632 21.2 473.144 22.2648 476.233 24.3845L476.799 23.56L477.365 22.7355C473.925 20.3752 470.014 19.2 465.663 19.2V20.2ZM476.799 23.56L476.252 24.397C479.463 26.497 481.943 29.0448 483.714 32.0373L484.575 31.528L485.436 31.0187C483.495 27.7392 480.79 24.9751 477.346 22.723L476.799 23.56ZM484.575 31.528H485.575V1.00002H484.575H483.575V31.528H484.575ZM484.575 1.00002V2.00002H491.103V1.00002V1.52588e-05H484.575V1.00002ZM491.103 1.00002H490.103V63.208H491.103H492.103V1.00002H491.103ZM491.103 63.208H490.103C490.103 64.2237 490.317 65.172 490.92 65.8748L491.679 65.224L492.438 64.5732C492.273 64.38 492.103 63.9844 492.103 63.208H491.103ZM491.679 65.224L490.972 65.9311C491.581 66.5405 492.418 66.817 493.324 66.8926L493.407 65.896L493.49 64.8995C492.86 64.847 492.545 64.6756 492.386 64.5169L491.679 65.224ZM493.407 65.896H492.407V71.08H493.407H494.407V65.896H493.407ZM493.407 71.08L493.259 70.0911C492.004 70.2793 491.106 70.3292 490.521 70.2761L490.431 71.272L490.34 72.2679C491.164 72.3428 492.25 72.2647 493.555 72.069L493.407 71.08ZM490.431 71.272L490.479 70.2731C489.403 70.2219 488.449 69.7956 487.586 68.9329L486.879 69.64L486.172 70.3471C487.357 71.5324 488.771 72.1941 490.383 72.2709L490.431 71.272ZM486.879 69.64L487.586 68.9329C486.711 68.058 486.343 67.181 486.343 66.28H485.343H484.343C484.343 67.811 484.999 69.174 486.172 70.3471L486.879 69.64ZM485.343 66.28H486.343V61.384H485.343H484.343V66.28H485.343ZM485.343 61.384L484.488 60.8646C482.595 63.9796 480.033 66.4521 476.786 68.2898L477.279 69.16L477.772 70.0303C481.309 68.0279 484.123 65.3165 486.197 61.9034L485.343 61.384ZM477.279 69.16L476.786 68.2898C473.534 70.1307 470.182 71.04 466.719 71.04V72.04V73.04C470.551 73.04 474.24 72.0293 477.772 70.0303L477.279 69.16ZM466.719 72.04V71.04C463.403 71.04 460.352 70.3657 457.55 69.0259L457.119 69.928L456.688 70.8302C459.774 72.3064 463.123 73.04 466.719 73.04V72.04ZM457.119 69.928L457.558 69.0296C454.796 67.6794 452.372 65.8388 450.28 63.5012L449.535 64.168L448.79 64.8348C451.05 67.3613 453.682 69.3606 456.68 70.8264L457.119 69.928ZM449.535 64.168L450.29 63.5123C448.254 61.1678 446.648 58.5136 445.473 55.544L444.543 55.912L443.613 56.2801C444.87 59.4544 446.592 62.3042 448.78 64.8237L449.535 64.168ZM444.543 55.912L445.482 55.5672C444.37 52.5412 443.815 49.4259 443.815 46.216H442.815H441.815C441.815 49.6621 442.412 53.0108 443.604 56.2568L444.543 55.912ZM484.575 53.896H485.575V38.44H484.575H483.575V53.896H484.575ZM484.575 38.44L485.516 38.1004C484.63 35.6485 483.202 33.4452 481.25 31.4929L480.543 32.2L479.836 32.9071C481.596 34.6668 482.856 36.6235 483.634 38.7797L484.575 38.44ZM480.543 32.2L481.262 31.505C479.322 29.4979 477.108 27.9205 474.624 26.7793L474.207 27.688L473.789 28.5967C476.042 29.6315 478.052 31.0621 479.824 32.895L480.543 32.2ZM474.207 27.688L474.654 26.7936C472.228 25.5804 469.772 24.96 467.295 24.96V25.96V26.96C469.426 26.96 471.578 27.4916 473.76 28.5824L474.207 27.688ZM467.295 25.96V24.96C464.459 24.96 461.864 25.5691 459.531 26.8042L459.999 27.688L460.467 28.5718C462.486 27.503 464.755 26.96 467.295 26.96V25.96ZM459.999 27.688L459.552 26.7936C457.249 27.945 455.253 29.5368 453.567 31.5598L454.335 32.2L455.103 32.8402C456.617 31.0232 458.397 29.607 460.446 28.5824L459.999 27.688ZM454.335 32.2L453.554 31.5753C451.943 33.5894 450.704 35.8682 449.837 38.4043L450.783 38.728L451.729 39.0517C452.525 36.7238 453.655 34.6506 455.116 32.8247L454.335 32.2ZM450.783 38.728L449.837 38.4043C448.969 40.9401 448.535 43.5454 448.535 46.216H449.535H450.535C450.535 43.7666 450.933 41.3799 451.729 39.0517L450.783 38.728ZM449.535 46.216H448.535C448.535 49.0175 449.002 51.6949 449.941 54.2417L450.879 53.896L451.817 53.5503C450.964 51.2331 450.535 48.7905 450.535 46.216H449.535ZM450.879 53.896L449.949 54.2632C450.952 56.8047 452.359 59.0832 454.168 61.093L454.911 60.424L455.654 59.7551C454.007 57.9248 452.726 55.8513 451.809 53.5289L450.879 53.896ZM454.911 60.424L454.179 61.1054C455.994 63.0546 458.084 64.5733 460.447 65.6535L460.863 64.744L461.279 63.8345C459.162 62.8667 457.284 61.5055 455.643 59.7426L454.911 60.424ZM460.863 64.744L460.447 65.6535C462.826 66.741 465.401 67.28 468.159 67.28V66.28V65.28C465.669 65.28 463.38 64.795 461.279 63.8345L460.863 64.744ZM468.159 66.28V67.28C469.953 67.28 471.795 66.9349 473.679 66.2618L473.343 65.32L473.007 64.3783C471.307 64.9852 469.693 65.28 468.159 65.28V66.28ZM473.343 65.32L473.679 66.2618C475.553 65.5928 477.324 64.6898 478.993 63.5549L478.431 62.728L477.869 61.9011C476.338 62.9422 474.717 63.7673 473.007 64.3783L473.343 65.32ZM478.431 62.728L479 63.5502C480.753 62.3368 482.215 60.9121 483.375 59.274L482.559 58.696L481.743 58.118C480.727 59.5519 479.437 60.8152 477.862 61.9058L478.431 62.728ZM482.559 58.696L483.375 59.274C484.542 57.6265 485.281 55.8828 485.563 54.0481L484.575 53.896L483.587 53.744C483.357 55.2372 482.752 56.6936 481.743 58.118L482.559 58.696Z" fill="#454545" mask="url(#path-1-outside-1_2_5)"/>
</g>
<defs>
<filter id="filter0_d_2_5" x="0" y="0" width="498.407" height="81.04" filterUnits="userSpaceOnUse" color-interpolation-filters="sRGB">
<feFlood flood-opacity="0" result="BackgroundImageFix"/>
<feColorMatrix in="SourceAlpha" type="matrix" values="0 0 0 0 0 0 0 0 0 0 0 0 0 0 0 0 0 0 127 0" result="hardAlpha"/>
<feOffset dy="4"/>
<feGaussianBlur stdDeviation="2"/>
<feComposite in2="hardAlpha" operator="out"/>
<feColorMatrix type="matrix" values="0 0 0 0 0.0865385 0 0 0 0 0.00124815 0 0 0 0 0.00124815 0 0 0 0.25 0"/>
<feBlend mode="normal" in2="BackgroundImageFix" result="effect1_dropShadow_2_5"/>
<feBlend mode="normal" in="SourceGraphic" in2="effect1_dropShadow_2_5" result="shape"/>
</filter>
</defs>
</svg>
